%TF.GenerationSoftware,KiCad,Pcbnew,(6.0.11)*%
%TF.CreationDate,2023-01-29T21:23:29-06:00*%
%TF.ProjectId,Tap_Photosensor_PCB,5461705f-5068-46f7-946f-73656e736f72,rev?*%
%TF.SameCoordinates,Original*%
%TF.FileFunction,Legend,Bot*%
%TF.FilePolarity,Positive*%
%FSLAX46Y46*%
G04 Gerber Fmt 4.6, Leading zero omitted, Abs format (unit mm)*
G04 Created by KiCad (PCBNEW (6.0.11)) date 2023-01-29 21:23:29*
%MOMM*%
%LPD*%
G01*
G04 APERTURE LIST*
%ADD10C,0.007242*%
%ADD11C,0.300000*%
%ADD12C,0.150000*%
%ADD13C,0.120000*%
G04 APERTURE END LIST*
D10*
G36*
X113926178Y-56031946D02*
G01*
X114882126Y-57410124D01*
X114169510Y-57410124D01*
X113217895Y-56030493D01*
X113926178Y-56031946D01*
G37*
X113926178Y-56031946D02*
X114882126Y-57410124D01*
X114169510Y-57410124D01*
X113217895Y-56030493D01*
X113926178Y-56031946D01*
G36*
X112645828Y-56031222D02*
G01*
X114557739Y-58792662D01*
X113855255Y-58792662D01*
X111935287Y-56030493D01*
X112645828Y-56031222D01*
G37*
X112645828Y-56031222D02*
X114557739Y-58792662D01*
X113855255Y-58792662D01*
X111935287Y-56030493D01*
X112645828Y-56031222D01*
G36*
X113282364Y-58792662D02*
G01*
X112571930Y-58792662D01*
X111602157Y-57400000D01*
X112319168Y-57400000D01*
X113282364Y-58792662D01*
G37*
X113282364Y-58792662D02*
X112571930Y-58792662D01*
X111602157Y-57400000D01*
X112319168Y-57400000D01*
X113282364Y-58792662D01*
D11*
X115532486Y-56165190D02*
X115532486Y-58657221D01*
X113254837Y-59910845D01*
X110967712Y-58661566D01*
X110968673Y-56165919D01*
X113250000Y-54910841D01*
X115532486Y-56165190D01*
D12*
X106800284Y-55604248D02*
X106284391Y-55181994D01*
X106431789Y-55302638D02*
X106327929Y-55279166D01*
X106260918Y-55285854D01*
X106163747Y-55329392D01*
X106103425Y-55403091D01*
X106130054Y-56347927D02*
X106227225Y-56304389D01*
X106347869Y-56156991D01*
X106371342Y-56053131D01*
X106327803Y-55955959D01*
X106033007Y-55714671D01*
X105929147Y-55691199D01*
X105831976Y-55734737D01*
X105711332Y-55882135D01*
X105687859Y-55985995D01*
X105731397Y-56083167D01*
X105805096Y-56143489D01*
X106180405Y-55835315D01*
X105409722Y-56250631D02*
X105774810Y-56857132D01*
X105108112Y-56619126D01*
X104283670Y-57851944D02*
X104230036Y-57992654D01*
X104236725Y-58059665D01*
X104280263Y-58156836D01*
X104390811Y-58247319D01*
X104494671Y-58270792D01*
X104561682Y-58264103D01*
X104658853Y-58220565D01*
X104900141Y-57925769D01*
X104126301Y-57292388D01*
X103915174Y-57550334D01*
X103891702Y-57654195D01*
X103898390Y-57721205D01*
X103941928Y-57818377D01*
X104015627Y-57878699D01*
X104119488Y-57902171D01*
X104186498Y-57895483D01*
X104283670Y-57851944D01*
X104494797Y-57593998D01*
X103861416Y-58367838D02*
X103650289Y-58625785D01*
X103965151Y-59068104D02*
X104266761Y-58699609D01*
X103492920Y-58066228D01*
X103191310Y-58434723D01*
X103502765Y-59181934D02*
X103201155Y-59550430D01*
X103784185Y-59289201D02*
X102799217Y-58913767D01*
X103361931Y-59805095D01*
X103150804Y-60063042D02*
X102376964Y-59429661D01*
X102788872Y-60505236D01*
X102015032Y-59871855D01*
X102480573Y-60806721D02*
X102426940Y-60947430D01*
X102276135Y-61131678D01*
X102178963Y-61175216D01*
X102111953Y-61181905D01*
X102008093Y-61158432D01*
X101934394Y-61098110D01*
X101890856Y-61000939D01*
X101884167Y-60933928D01*
X101907640Y-60830068D01*
X101991434Y-60652509D01*
X102014906Y-60548649D01*
X102008218Y-60481638D01*
X101964680Y-60384467D01*
X101890981Y-60324145D01*
X101787121Y-60300672D01*
X101720110Y-60307361D01*
X101622939Y-60350899D01*
X101472134Y-60535147D01*
X101418500Y-60675856D01*
X100731486Y-61590406D02*
X100664475Y-61597095D01*
X100567304Y-61640633D01*
X100416499Y-61824880D01*
X100393026Y-61928740D01*
X100399715Y-61995751D01*
X100443253Y-62092923D01*
X100516952Y-62153245D01*
X100657662Y-62206878D01*
X101461788Y-62126615D01*
X101069695Y-62605659D01*
X119059523Y-60928571D02*
X118916666Y-60976190D01*
X118869047Y-61023809D01*
X118821428Y-61119047D01*
X118821428Y-61261904D01*
X118869047Y-61357142D01*
X118916666Y-61404761D01*
X119011904Y-61452380D01*
X119392857Y-61452380D01*
X119392857Y-60452380D01*
X119059523Y-60452380D01*
X118964285Y-60500000D01*
X118916666Y-60547619D01*
X118869047Y-60642857D01*
X118869047Y-60738095D01*
X118916666Y-60833333D01*
X118964285Y-60880952D01*
X119059523Y-60928571D01*
X119392857Y-60928571D01*
X118488095Y-60785714D02*
X118250000Y-61452380D01*
X118011904Y-60785714D02*
X118250000Y-61452380D01*
X118345238Y-61690476D01*
X118392857Y-61738095D01*
X118488095Y-61785714D01*
X116869047Y-61452380D02*
X116869047Y-60452380D01*
X116630952Y-60452380D01*
X116488095Y-60500000D01*
X116392857Y-60595238D01*
X116345238Y-60690476D01*
X116297619Y-60880952D01*
X116297619Y-61023809D01*
X116345238Y-61214285D01*
X116392857Y-61309523D01*
X116488095Y-61404761D01*
X116630952Y-61452380D01*
X116869047Y-61452380D01*
X115440476Y-61452380D02*
X115440476Y-60928571D01*
X115488095Y-60833333D01*
X115583333Y-60785714D01*
X115773809Y-60785714D01*
X115869047Y-60833333D01*
X115440476Y-61404761D02*
X115535714Y-61452380D01*
X115773809Y-61452380D01*
X115869047Y-61404761D01*
X115916666Y-61309523D01*
X115916666Y-61214285D01*
X115869047Y-61119047D01*
X115773809Y-61071428D01*
X115535714Y-61071428D01*
X115440476Y-61023809D01*
X114535714Y-61452380D02*
X114535714Y-60452380D01*
X114535714Y-61404761D02*
X114630952Y-61452380D01*
X114821428Y-61452380D01*
X114916666Y-61404761D01*
X114964285Y-61357142D01*
X115011904Y-61261904D01*
X115011904Y-60976190D01*
X114964285Y-60880952D01*
X114916666Y-60833333D01*
X114821428Y-60785714D01*
X114630952Y-60785714D01*
X114535714Y-60833333D01*
X113630952Y-61452380D02*
X113630952Y-60452380D01*
X113630952Y-61404761D02*
X113726190Y-61452380D01*
X113916666Y-61452380D01*
X114011904Y-61404761D01*
X114059523Y-61357142D01*
X114107142Y-61261904D01*
X114107142Y-60976190D01*
X114059523Y-60880952D01*
X114011904Y-60833333D01*
X113916666Y-60785714D01*
X113726190Y-60785714D01*
X113630952Y-60833333D01*
X113250000Y-60785714D02*
X113011904Y-61452380D01*
X112773809Y-60785714D02*
X113011904Y-61452380D01*
X113107142Y-61690476D01*
X113154761Y-61738095D01*
X113250000Y-61785714D01*
X111107142Y-60500000D02*
X111202380Y-60452380D01*
X111345238Y-60452380D01*
X111488095Y-60500000D01*
X111583333Y-60595238D01*
X111630952Y-60690476D01*
X111678571Y-60880952D01*
X111678571Y-61023809D01*
X111630952Y-61214285D01*
X111583333Y-61309523D01*
X111488095Y-61404761D01*
X111345238Y-61452380D01*
X111250000Y-61452380D01*
X111107142Y-61404761D01*
X111059523Y-61357142D01*
X111059523Y-61023809D01*
X111250000Y-61023809D01*
X123949136Y-62724315D02*
X123942448Y-62791326D01*
X123996081Y-62932036D01*
X124056403Y-63005735D01*
X124183736Y-63086122D01*
X124317757Y-63099499D01*
X124421617Y-63076027D01*
X124599176Y-62992232D01*
X124709725Y-62901749D01*
X124826962Y-62744256D01*
X124870500Y-62647084D01*
X124883877Y-62513063D01*
X124830244Y-62372354D01*
X124769922Y-62298655D01*
X124642589Y-62218267D01*
X124575579Y-62211579D01*
X123603988Y-62452992D02*
X124377829Y-61819611D01*
X123332540Y-62121346D02*
X123737884Y-61789575D01*
X123841744Y-61766102D01*
X123938916Y-61809641D01*
X124029399Y-61920189D01*
X124052871Y-62024049D01*
X124046183Y-62091060D01*
X122826491Y-61427893D02*
X122849964Y-61531753D01*
X122970608Y-61679151D01*
X123067779Y-61722690D01*
X123171639Y-61699217D01*
X123466435Y-61457929D01*
X123509974Y-61360758D01*
X123486501Y-61256898D01*
X123365857Y-61109499D01*
X123268686Y-61065961D01*
X123164825Y-61089434D01*
X123091126Y-61149756D01*
X123319037Y-61578573D01*
X122216583Y-60757913D02*
X122621928Y-60426142D01*
X122725788Y-60402670D01*
X122822959Y-60446208D01*
X122943603Y-60593606D01*
X122967076Y-60697466D01*
X122253432Y-60727752D02*
X122276905Y-60831612D01*
X122427710Y-61015860D01*
X122524881Y-61059398D01*
X122628741Y-61035925D01*
X122702440Y-60975603D01*
X122745978Y-60878432D01*
X122722506Y-60774572D01*
X122571701Y-60590324D01*
X122548229Y-60486464D01*
X122430866Y-59967164D02*
X121657026Y-60600545D01*
X122394017Y-59997325D02*
X122370544Y-59893465D01*
X122249900Y-59746067D01*
X122152729Y-59702529D01*
X122085718Y-59695840D01*
X121981858Y-59719312D01*
X121760761Y-59900278D01*
X121717223Y-59997450D01*
X121710534Y-60064460D01*
X121734007Y-60168321D01*
X121854651Y-60315719D01*
X121951822Y-60359257D01*
X122206237Y-59166444D02*
X121844305Y-58724250D01*
X121251431Y-59578728D02*
X122025271Y-58945347D01*
X120587889Y-58768038D02*
X120993234Y-58436267D01*
X121097094Y-58412795D01*
X121194266Y-58456333D01*
X121314909Y-58603731D01*
X121338382Y-58707591D01*
X120624739Y-58737877D02*
X120648211Y-58841737D01*
X120799016Y-59025985D01*
X120896188Y-59069523D01*
X121000048Y-59046051D01*
X121073747Y-58985729D01*
X121117285Y-58888557D01*
X121093812Y-58784697D01*
X120943007Y-58600449D01*
X120919535Y-58496589D01*
X120802173Y-57977289D02*
X120028332Y-58610670D01*
X120765323Y-58007450D02*
X120741851Y-57903590D01*
X120621207Y-57756192D01*
X120524035Y-57712654D01*
X120457025Y-57705965D01*
X120353165Y-57729438D01*
X120132067Y-57910404D01*
X120088529Y-58007575D01*
X120081841Y-58074586D01*
X120105313Y-58178446D01*
X120225957Y-58325844D01*
X120323129Y-58369382D01*
X106981936Y-55802654D02*
X107283546Y-55434159D01*
X107682202Y-55698919D01*
X107615192Y-55705608D01*
X107518020Y-55749146D01*
X107367215Y-55933393D01*
X107343743Y-56037253D01*
X107350431Y-56104264D01*
X107393969Y-56201436D01*
X107578217Y-56352241D01*
X107682077Y-56375713D01*
X107749088Y-56369024D01*
X107846259Y-56325486D01*
X107997064Y-56141239D01*
X108020537Y-56037379D01*
X108013848Y-55970368D01*
X107159370Y-56563242D02*
X106676794Y-57152835D01*
X106000000Y-57152710D02*
X105932990Y-57159398D01*
X105835818Y-57202936D01*
X105685013Y-57387184D01*
X105661541Y-57491044D01*
X105668229Y-57558055D01*
X105711767Y-57655226D01*
X105785466Y-57715548D01*
X105926176Y-57769182D01*
X106730302Y-57688919D01*
X106338209Y-58167963D01*
X105279418Y-58409001D02*
X105795312Y-58831255D01*
X105135427Y-57983465D02*
X105838975Y-58251632D01*
X105446882Y-58730676D01*
X104780183Y-58492670D02*
X105342897Y-59383998D01*
X104357929Y-59008564D01*
X103543583Y-60003501D02*
X103422939Y-60150899D01*
X103399466Y-60254759D01*
X103412843Y-60388780D01*
X103530080Y-60546274D01*
X103788027Y-60757401D01*
X103965586Y-60841195D01*
X104099607Y-60827818D01*
X104196779Y-60784280D01*
X104317423Y-60636882D01*
X104340895Y-60533022D01*
X104327518Y-60399001D01*
X104210281Y-60241507D01*
X103952334Y-60030380D01*
X103774775Y-59946586D01*
X103640754Y-59959963D01*
X103543583Y-60003501D01*
X103774525Y-61300173D02*
X103000685Y-60666793D01*
X103412593Y-61742368D02*
X103241848Y-61048790D01*
X102638753Y-61108987D02*
X103442879Y-61028724D01*
%TO.C,U3*%
X116021904Y-66912380D02*
X116021904Y-67721904D01*
X115974285Y-67817142D01*
X115926666Y-67864761D01*
X115831428Y-67912380D01*
X115640952Y-67912380D01*
X115545714Y-67864761D01*
X115498095Y-67817142D01*
X115450476Y-67721904D01*
X115450476Y-66912380D01*
X115069523Y-66912380D02*
X114450476Y-66912380D01*
X114783809Y-67293333D01*
X114640952Y-67293333D01*
X114545714Y-67340952D01*
X114498095Y-67388571D01*
X114450476Y-67483809D01*
X114450476Y-67721904D01*
X114498095Y-67817142D01*
X114545714Y-67864761D01*
X114640952Y-67912380D01*
X114926666Y-67912380D01*
X115021904Y-67864761D01*
X115069523Y-67817142D01*
D13*
X118930000Y-68270000D02*
X106230000Y-68270000D01*
X106230000Y-68270000D02*
X106230000Y-63190000D01*
X106230000Y-63190000D02*
X118930000Y-63190000D01*
X118930000Y-63190000D02*
X118930000Y-68270000D01*
%TD*%
M02*
