M48
; DRILL file {KiCad (6.0.11)} date Sun Jan 29 21:23:27 2023
; FORMAT={-:-/ absolute / inch / decimal}
; #@! TF.CreationDate,2023-01-29T21:23:27-06:00
; #@! TF.GenerationSoftware,Kicad,Pcbnew,(6.0.11)
; #@! TF.FileFunction,Plated,1,2,PTH
FMAT,2
INCH
; #@! TA.AperFunction,Plated,PTH,ViaDrill
T1C0.0157
; #@! TA.AperFunction,Plated,PTH,ComponentDrill
T2C0.0295
; #@! TA.AperFunction,Plated,PTH,ComponentDrill
T3C0.0300
%
G90
G05
T1
X4.1339Y-2.252
X4.1339Y-2.4331
X4.1496Y-2.3701
X4.1732Y-2.4016
X4.1811Y-2.4488
X4.2126Y-2.4016
X4.3996Y-2.4311
X4.3996Y-2.5197
X4.3996Y-2.628
X4.5374Y-2.3524
X4.5472Y-2.5394
X4.5472Y-2.5984
X4.7047Y-2.4606
X4.8917Y-2.4606
T2
X4.2992Y-2.2362
X4.2992Y-2.315
X4.2992Y-2.3937
T3
X4.2323Y-2.6346
X4.2354Y-2.5362
X4.6291Y-2.5362
X4.6323Y-2.6346
T0
M30
