%TF.GenerationSoftware,KiCad,Pcbnew,(6.0.11)*%
%TF.CreationDate,2023-01-29T21:23:29-06:00*%
%TF.ProjectId,Tap_Photosensor_PCB,5461705f-5068-46f7-946f-73656e736f72,rev?*%
%TF.SameCoordinates,Original*%
%TF.FileFunction,Copper,L1,Top*%
%TF.FilePolarity,Positive*%
%FSLAX46Y46*%
G04 Gerber Fmt 4.6, Leading zero omitted, Abs format (unit mm)*
G04 Created by KiCad (PCBNEW (6.0.11)) date 2023-01-29 21:23:29*
%MOMM*%
%LPD*%
G01*
G04 APERTURE LIST*
G04 Aperture macros list*
%AMRoundRect*
0 Rectangle with rounded corners*
0 $1 Rounding radius*
0 $2 $3 $4 $5 $6 $7 $8 $9 X,Y pos of 4 corners*
0 Add a 4 corners polygon primitive as box body*
4,1,4,$2,$3,$4,$5,$6,$7,$8,$9,$2,$3,0*
0 Add four circle primitives for the rounded corners*
1,1,$1+$1,$2,$3*
1,1,$1+$1,$4,$5*
1,1,$1+$1,$6,$7*
1,1,$1+$1,$8,$9*
0 Add four rect primitives between the rounded corners*
20,1,$1+$1,$2,$3,$4,$5,0*
20,1,$1+$1,$4,$5,$6,$7,0*
20,1,$1+$1,$6,$7,$8,$9,0*
20,1,$1+$1,$8,$9,$2,$3,0*%
%AMFreePoly0*
4,1,9,3.862500,-0.866500,0.737500,-0.866500,0.737500,-0.450000,-0.737500,-0.450000,-0.737500,0.450000,0.737500,0.450000,0.737500,0.866500,3.862500,0.866500,3.862500,-0.866500,3.862500,-0.866500,$1*%
G04 Aperture macros list end*
%TA.AperFunction,SMDPad,CuDef*%
%ADD10R,1.200000X0.900000*%
%TD*%
%TA.AperFunction,SMDPad,CuDef*%
%ADD11RoundRect,0.218750X0.256250X-0.218750X0.256250X0.218750X-0.256250X0.218750X-0.256250X-0.218750X0*%
%TD*%
%TA.AperFunction,ComponentPad*%
%ADD12RoundRect,0.250000X-0.625000X0.350000X-0.625000X-0.350000X0.625000X-0.350000X0.625000X0.350000X0*%
%TD*%
%TA.AperFunction,ComponentPad*%
%ADD13O,1.750000X1.200000*%
%TD*%
%TA.AperFunction,SMDPad,CuDef*%
%ADD14RoundRect,0.225000X-0.250000X0.225000X-0.250000X-0.225000X0.250000X-0.225000X0.250000X0.225000X0*%
%TD*%
%TA.AperFunction,SMDPad,CuDef*%
%ADD15R,0.900000X1.300000*%
%TD*%
%TA.AperFunction,SMDPad,CuDef*%
%ADD16FreePoly0,270.000000*%
%TD*%
%TA.AperFunction,SMDPad,CuDef*%
%ADD17C,0.500000*%
%TD*%
%TA.AperFunction,ComponentPad*%
%ADD18C,1.524000*%
%TD*%
%TA.AperFunction,SMDPad,CuDef*%
%ADD19RoundRect,0.200000X-0.275000X0.200000X-0.275000X-0.200000X0.275000X-0.200000X0.275000X0.200000X0*%
%TD*%
%TA.AperFunction,SMDPad,CuDef*%
%ADD20RoundRect,0.200000X-0.200000X-0.275000X0.200000X-0.275000X0.200000X0.275000X-0.200000X0.275000X0*%
%TD*%
%TA.AperFunction,ViaPad*%
%ADD21C,0.800000*%
%TD*%
%TA.AperFunction,Conductor*%
%ADD22C,0.500000*%
%TD*%
G04 APERTURE END LIST*
D10*
%TO.P,D1,1,K*%
%TO.N,Vin*%
X111750000Y-56600000D03*
%TO.P,D1,2,A*%
%TO.N,GND*%
X111750000Y-59900000D03*
%TD*%
D11*
%TO.P,D2,1,K*%
%TO.N,GND*%
X114186250Y-66787500D03*
%TO.P,D2,2,A*%
%TO.N,/current limit status led*%
X114186250Y-65212500D03*
%TD*%
D12*
%TO.P,J1,1,Pin_1*%
%TO.N,Vin*%
X109200000Y-56800000D03*
D13*
%TO.P,J1,2,Pin_2*%
%TO.N,GND*%
X109200000Y-58800000D03*
%TO.P,J1,3,Pin_3*%
%TO.N,SIG*%
X109200000Y-60800000D03*
%TD*%
D14*
%TO.P,C2,1*%
%TO.N,+5V*%
X120500000Y-59475000D03*
%TO.P,C2,2*%
%TO.N,GND*%
X120500000Y-61025000D03*
%TD*%
D15*
%TO.P,U1,1,OUT*%
%TO.N,+5V*%
X118500000Y-56100000D03*
D16*
%TO.P,U1,2,GND*%
%TO.N,GND*%
X117000000Y-56187500D03*
D15*
%TO.P,U1,3,IN*%
%TO.N,Vin*%
X115500000Y-56100000D03*
%TD*%
D17*
%TO.P,REF\u002A\u002A,*%
%TO.N,*%
X107400000Y-62200000D03*
%TD*%
D18*
%TO.P,U3,1,Anode*%
%TO.N,/current limit u3 led*%
X117580000Y-64420000D03*
%TO.P,U3,2,Cathode*%
%TO.N,GND*%
X117660000Y-66920000D03*
%TO.P,U3,3,Collector*%
%TO.N,SIG*%
X107500000Y-66920000D03*
%TO.P,U3,4,Emitter*%
%TO.N,GND*%
X107580000Y-64420000D03*
%TD*%
D19*
%TO.P,R3,1*%
%TO.N,+5V*%
X114186250Y-61925000D03*
%TO.P,R3,2*%
%TO.N,/current limit status led*%
X114186250Y-63575000D03*
%TD*%
D17*
%TO.P,REF\u002A\u002A,*%
%TO.N,*%
X109600000Y-67400000D03*
%TD*%
%TO.P,REF\u002A\u002A,*%
%TO.N,*%
X122600000Y-61000000D03*
%TD*%
D14*
%TO.P,C1,1*%
%TO.N,Vin*%
X113690000Y-57295000D03*
%TO.P,C1,2*%
%TO.N,GND*%
X113690000Y-58845000D03*
%TD*%
D20*
%TO.P,R5,1*%
%TO.N,+5V*%
X116425000Y-62400000D03*
%TO.P,R5,2*%
%TO.N,/current limit u3 led*%
X118075000Y-62400000D03*
%TD*%
D21*
%TO.N,GND*%
X105000000Y-57200000D03*
X111750000Y-64000000D03*
X115500000Y-64500000D03*
X115500000Y-66000000D03*
X106000000Y-61000000D03*
X119500000Y-62500000D03*
X111750000Y-61750000D03*
X105000000Y-61800000D03*
X111750000Y-66750000D03*
X107000000Y-61000000D03*
X106200000Y-62200000D03*
X115250000Y-59750000D03*
X124250000Y-62500000D03*
X105400000Y-60200000D03*
%TD*%
D22*
%TO.N,SIG*%
X109200000Y-60800000D02*
X109200000Y-62200000D01*
X110250000Y-65250000D02*
X109500000Y-66000000D01*
X109200000Y-62200000D02*
X110250000Y-63250000D01*
X108420000Y-66000000D02*
X107500000Y-66920000D01*
X109500000Y-66000000D02*
X108420000Y-66000000D01*
X110250000Y-63250000D02*
X110250000Y-65250000D01*
%TO.N,/current limit u3 led*%
X118075000Y-63925000D02*
X117580000Y-64420000D01*
X118075000Y-62400000D02*
X118075000Y-63925000D01*
%TO.N,/current limit status led*%
X114186250Y-63575000D02*
X114186250Y-65212500D01*
%TD*%
%TA.AperFunction,Conductor*%
%TO.N,Vin*%
G36*
X115942121Y-55270002D02*
G01*
X115988614Y-55323658D01*
X116000000Y-55376000D01*
X116000000Y-56576491D01*
X115979998Y-56644612D01*
X115949933Y-56677040D01*
X115901566Y-56713565D01*
X115840849Y-56811626D01*
X115819656Y-56925000D01*
X115819656Y-57401330D01*
X115799654Y-57469451D01*
X115745998Y-57515944D01*
X115705066Y-57526812D01*
X113255687Y-57749483D01*
X113244280Y-57750000D01*
X110571302Y-57750000D01*
X110503181Y-57729998D01*
X110456688Y-57676342D01*
X110446584Y-57606068D01*
X110464042Y-57557884D01*
X110512816Y-57478757D01*
X110518963Y-57465576D01*
X110570138Y-57311290D01*
X110573005Y-57297914D01*
X110582672Y-57203562D01*
X110583000Y-57197146D01*
X110583000Y-57072115D01*
X110578525Y-57056876D01*
X110577135Y-57055671D01*
X110569452Y-57054000D01*
X109072000Y-57054000D01*
X109003879Y-57033998D01*
X108957386Y-56980342D01*
X108946000Y-56928000D01*
X108946000Y-56672000D01*
X108966002Y-56603879D01*
X109019658Y-56557386D01*
X109072000Y-56546000D01*
X110564884Y-56546000D01*
X110580123Y-56541525D01*
X110581328Y-56540135D01*
X110582999Y-56532452D01*
X110582999Y-56402905D01*
X110582662Y-56396386D01*
X110572743Y-56300794D01*
X110569851Y-56287400D01*
X110518412Y-56133216D01*
X110512239Y-56120038D01*
X110426937Y-55982193D01*
X110417901Y-55970791D01*
X110412063Y-55964964D01*
X110377985Y-55902681D01*
X110382988Y-55831861D01*
X110425486Y-55774989D01*
X110477253Y-55752066D01*
X110487981Y-55750000D01*
X110500000Y-55750000D01*
X110511159Y-55745536D01*
X110511161Y-55745536D01*
X111727470Y-55259012D01*
X111774265Y-55250000D01*
X115874000Y-55250000D01*
X115942121Y-55270002D01*
G37*
%TD.AperFunction*%
%TD*%
%TA.AperFunction,Conductor*%
%TO.N,+5V*%
G36*
X119015931Y-55270002D02*
G01*
X119036905Y-55286905D01*
X119213095Y-55463095D01*
X119247121Y-55525407D01*
X119250000Y-55552190D01*
X119250000Y-56000000D01*
X119260347Y-56015521D01*
X119260348Y-56015523D01*
X120248486Y-57497729D01*
X120250000Y-57500000D01*
X120251701Y-57502126D01*
X120251703Y-57502129D01*
X121222389Y-58715486D01*
X121249325Y-58781175D01*
X121250000Y-58794198D01*
X121250000Y-59947810D01*
X121229998Y-60015931D01*
X121213095Y-60036905D01*
X121153699Y-60096301D01*
X121091387Y-60130327D01*
X121024937Y-60126799D01*
X120980273Y-60111985D01*
X120898124Y-60084737D01*
X120891288Y-60084037D01*
X120891285Y-60084036D01*
X120841203Y-60078905D01*
X120798207Y-60074500D01*
X120502300Y-60074500D01*
X120201794Y-60074501D01*
X120198550Y-60074838D01*
X120198542Y-60074838D01*
X120154120Y-60079447D01*
X120100628Y-60084997D01*
X119940148Y-60138537D01*
X119796289Y-60227560D01*
X119791116Y-60232742D01*
X119789289Y-60234190D01*
X119758764Y-60250000D01*
X119750000Y-60250000D01*
X119742525Y-60262459D01*
X119721964Y-60296727D01*
X119703093Y-60320919D01*
X119676769Y-60347289D01*
X119587997Y-60491303D01*
X119585693Y-60498250D01*
X119571091Y-60542272D01*
X119559542Y-60567429D01*
X119036704Y-61438826D01*
X118984505Y-61486949D01*
X118928660Y-61500000D01*
X118630440Y-61500000D01*
X118578591Y-61488838D01*
X118571880Y-61485808D01*
X118565383Y-61481873D01*
X118403594Y-61431171D01*
X118330993Y-61424500D01*
X118328095Y-61424500D01*
X118074336Y-61424501D01*
X117819008Y-61424501D01*
X117816150Y-61424764D01*
X117816141Y-61424764D01*
X117780757Y-61428015D01*
X117746406Y-61431171D01*
X117740028Y-61433170D01*
X117740027Y-61433170D01*
X117591866Y-61479601D01*
X117591864Y-61479602D01*
X117584617Y-61481873D01*
X117439592Y-61569703D01*
X117319703Y-61689592D01*
X117231873Y-61834617D01*
X117181171Y-61996406D01*
X117174500Y-62069007D01*
X117174500Y-62071905D01*
X117174501Y-62718058D01*
X117171368Y-62745982D01*
X117065172Y-63213245D01*
X117030570Y-63275239D01*
X116995555Y-63299516D01*
X116951320Y-63320143D01*
X116951317Y-63320145D01*
X116946339Y-63322466D01*
X116765380Y-63449174D01*
X116751459Y-63463095D01*
X116689147Y-63497121D01*
X116662364Y-63500000D01*
X115817433Y-63500000D01*
X115749312Y-63479998D01*
X115712595Y-63443892D01*
X115260049Y-62765074D01*
X115250000Y-62750000D01*
X114816690Y-62750000D01*
X114764841Y-62738838D01*
X114758132Y-62735809D01*
X114751633Y-62731873D01*
X114589844Y-62681171D01*
X114517243Y-62674500D01*
X114514345Y-62674500D01*
X114185392Y-62674501D01*
X113855258Y-62674501D01*
X113852400Y-62674764D01*
X113852391Y-62674764D01*
X113804445Y-62679169D01*
X113782656Y-62681171D01*
X113776278Y-62683170D01*
X113776277Y-62683170D01*
X113726496Y-62698770D01*
X113655511Y-62700054D01*
X113632468Y-62691234D01*
X113319650Y-62534825D01*
X113267667Y-62486471D01*
X113250000Y-62422128D01*
X113250000Y-61302190D01*
X113270002Y-61234069D01*
X113286905Y-61213095D01*
X113713095Y-60786905D01*
X113775407Y-60752879D01*
X113802190Y-60750000D01*
X117750000Y-60750000D01*
X117931348Y-60568652D01*
X117984944Y-60536851D01*
X118018222Y-60527080D01*
X118067907Y-60512492D01*
X118067909Y-60512491D01*
X118076553Y-60509953D01*
X118084131Y-60505083D01*
X118084133Y-60505082D01*
X118190048Y-60437015D01*
X118190051Y-60437013D01*
X118197628Y-60432143D01*
X118203529Y-60425333D01*
X118285974Y-60330186D01*
X118285975Y-60330184D01*
X118291877Y-60323373D01*
X118335995Y-60226769D01*
X118347922Y-60200654D01*
X118347923Y-60200651D01*
X118351665Y-60192457D01*
X118358863Y-60142393D01*
X118371508Y-60054447D01*
X118371508Y-60054442D01*
X118372147Y-60050000D01*
X118372147Y-56925000D01*
X118367000Y-56853039D01*
X118326453Y-56714947D01*
X118321582Y-56707367D01*
X118253515Y-56601452D01*
X118253513Y-56601449D01*
X118248643Y-56593872D01*
X118241833Y-56587971D01*
X118146686Y-56505526D01*
X118146684Y-56505525D01*
X118139873Y-56499623D01*
X118076441Y-56470654D01*
X118029304Y-56449127D01*
X117975649Y-56402634D01*
X117955647Y-56334514D01*
X117955647Y-55450000D01*
X117950997Y-55384989D01*
X117966088Y-55315615D01*
X118016290Y-55265413D01*
X118076676Y-55250000D01*
X118947810Y-55250000D01*
X119015931Y-55270002D01*
G37*
%TD.AperFunction*%
%TD*%
%TA.AperFunction,Conductor*%
%TO.N,GND*%
G36*
X110614006Y-54945502D02*
G01*
X110660499Y-54999158D01*
X110670603Y-55069432D01*
X110641109Y-55134012D01*
X110592680Y-55168488D01*
X110353993Y-55263962D01*
X110344862Y-55267213D01*
X110316332Y-55276150D01*
X110272581Y-55289854D01*
X110220814Y-55312777D01*
X110122205Y-55370575D01*
X110116502Y-55376288D01*
X110116499Y-55376290D01*
X110076293Y-55416565D01*
X110020553Y-55472400D01*
X110017868Y-55475994D01*
X110017863Y-55475999D01*
X109980748Y-55525668D01*
X109978055Y-55529272D01*
X109975903Y-55533222D01*
X109975900Y-55533226D01*
X109921102Y-55633789D01*
X109870943Y-55684035D01*
X109810462Y-55699500D01*
X108525134Y-55699500D01*
X108521888Y-55699837D01*
X108521884Y-55699837D01*
X108427339Y-55709647D01*
X108427335Y-55709648D01*
X108420481Y-55710359D01*
X108413945Y-55712540D01*
X108413943Y-55712540D01*
X108274860Y-55758942D01*
X108254471Y-55765744D01*
X108105655Y-55857834D01*
X107982016Y-55981689D01*
X107890186Y-56130666D01*
X107835090Y-56296772D01*
X107824500Y-56400134D01*
X107824500Y-57199866D01*
X107835359Y-57304519D01*
X107837540Y-57311055D01*
X107837540Y-57311057D01*
X107869141Y-57405776D01*
X107890744Y-57470529D01*
X107982834Y-57619345D01*
X108106689Y-57742984D01*
X108112921Y-57746825D01*
X108112923Y-57746827D01*
X108160392Y-57776087D01*
X108207886Y-57828858D01*
X108219310Y-57898930D01*
X108191037Y-57964054D01*
X108172112Y-57982431D01*
X108162147Y-57990259D01*
X108153494Y-57998499D01*
X108022788Y-58149123D01*
X108015853Y-58158847D01*
X107915990Y-58331467D01*
X107911016Y-58342331D01*
X107845593Y-58530727D01*
X107845352Y-58531716D01*
X107846820Y-58542008D01*
X107860385Y-58546000D01*
X110535402Y-58546000D01*
X110548933Y-58542027D01*
X110550288Y-58532601D01*
X110528806Y-58443463D01*
X110522965Y-58426500D01*
X110524500Y-58425972D01*
X110515605Y-58363357D01*
X110545208Y-58298826D01*
X110604999Y-58260544D01*
X110640292Y-58255500D01*
X113244280Y-58255500D01*
X113267167Y-58254982D01*
X113267811Y-58254953D01*
X113267835Y-58254952D01*
X113277846Y-58254498D01*
X113278574Y-58254465D01*
X113301453Y-58252907D01*
X113302100Y-58252848D01*
X113302115Y-58252847D01*
X113339320Y-58249464D01*
X113378376Y-58245914D01*
X113391793Y-58245649D01*
X113391793Y-58245500D01*
X113988206Y-58245499D01*
X113991450Y-58245162D01*
X113991458Y-58245162D01*
X114035880Y-58240553D01*
X114089372Y-58235003D01*
X114249852Y-58181463D01*
X114256075Y-58177612D01*
X114262704Y-58174507D01*
X114263471Y-58176144D01*
X114307447Y-58161453D01*
X115750832Y-58030236D01*
X115789956Y-58023315D01*
X115832173Y-58015847D01*
X115832182Y-58015845D01*
X115834788Y-58015384D01*
X115864960Y-58007373D01*
X115873145Y-58005200D01*
X115873152Y-58005198D01*
X115875720Y-58004516D01*
X115878220Y-58003621D01*
X115878228Y-58003618D01*
X115937374Y-57982431D01*
X115955989Y-57975763D01*
X116077029Y-57897976D01*
X116130685Y-57851483D01*
X116150290Y-57828858D01*
X116219006Y-57749556D01*
X116219008Y-57749553D01*
X116224908Y-57742744D01*
X116284678Y-57611866D01*
X116304680Y-57543745D01*
X116325156Y-57401330D01*
X116325156Y-57126026D01*
X116345158Y-57057905D01*
X116350330Y-57050461D01*
X116388141Y-57000010D01*
X116388143Y-57000006D01*
X116393526Y-56992824D01*
X116443851Y-56858580D01*
X116444704Y-56850729D01*
X116444706Y-56850721D01*
X116445247Y-56845741D01*
X116455894Y-56807016D01*
X116463151Y-56791125D01*
X116463153Y-56791120D01*
X116465022Y-56787027D01*
X116485024Y-56718906D01*
X116487544Y-56701381D01*
X116504861Y-56580937D01*
X116504861Y-56580934D01*
X116505500Y-56576491D01*
X116505500Y-55376000D01*
X116493948Y-55268551D01*
X116482562Y-55216209D01*
X116448433Y-55113667D01*
X116444170Y-55107033D01*
X116443618Y-55105880D01*
X116432261Y-55035797D01*
X116460597Y-54970700D01*
X116519628Y-54931257D01*
X116557279Y-54925500D01*
X117396093Y-54925500D01*
X117464214Y-54945502D01*
X117510707Y-54999158D01*
X117520811Y-55069432D01*
X117514149Y-55095531D01*
X117499797Y-55134012D01*
X117472140Y-55208166D01*
X117471185Y-55212556D01*
X117471183Y-55212563D01*
X117471088Y-55213001D01*
X117457049Y-55277540D01*
X117446785Y-55421053D01*
X117447106Y-55425541D01*
X117449826Y-55463569D01*
X117450147Y-55472558D01*
X117450147Y-56334514D01*
X117470624Y-56476931D01*
X117490626Y-56545051D01*
X117492494Y-56549142D01*
X117492495Y-56549144D01*
X117538115Y-56649040D01*
X117549501Y-56701381D01*
X117549501Y-56797376D01*
X117556149Y-56858580D01*
X117606474Y-56992824D01*
X117611854Y-57000003D01*
X117611856Y-57000006D01*
X117655250Y-57057905D01*
X117692454Y-57107546D01*
X117699635Y-57112928D01*
X117799989Y-57188140D01*
X117799991Y-57188141D01*
X117802087Y-57189712D01*
X117807176Y-57193526D01*
X117806625Y-57194261D01*
X117851301Y-57239036D01*
X117866647Y-57299299D01*
X117866647Y-59958755D01*
X117846645Y-60026876D01*
X117790936Y-60074284D01*
X117730603Y-60100546D01*
X117730591Y-60100552D01*
X117726996Y-60102117D01*
X117673400Y-60133918D01*
X117573906Y-60211210D01*
X117572016Y-60213100D01*
X117507957Y-60243052D01*
X117488908Y-60244500D01*
X113802190Y-60244500D01*
X113778196Y-60245786D01*
X113749855Y-60247304D01*
X113749843Y-60247305D01*
X113748163Y-60247395D01*
X113721380Y-60250274D01*
X113719691Y-60250548D01*
X113719689Y-60250548D01*
X113674056Y-60257943D01*
X113674053Y-60257944D01*
X113667949Y-60258933D01*
X113662154Y-60261094D01*
X113662152Y-60261095D01*
X113630205Y-60273011D01*
X113533141Y-60309215D01*
X113529197Y-60311369D01*
X113529194Y-60311370D01*
X113491863Y-60331755D01*
X113470829Y-60343241D01*
X113467227Y-60345938D01*
X113467220Y-60345942D01*
X113359266Y-60426758D01*
X113355653Y-60429463D01*
X112929463Y-60855653D01*
X112893312Y-60895897D01*
X112876409Y-60916871D01*
X112844748Y-60960776D01*
X112784978Y-61091654D01*
X112764976Y-61159775D01*
X112744500Y-61302190D01*
X112744500Y-62422128D01*
X112762541Y-62555972D01*
X112763660Y-62560046D01*
X112763660Y-62560048D01*
X112775167Y-62601955D01*
X112780208Y-62620315D01*
X112833047Y-62744609D01*
X112923378Y-62856599D01*
X112975361Y-62904953D01*
X112979060Y-62907519D01*
X112979064Y-62907522D01*
X112985043Y-62911669D01*
X113093584Y-62986958D01*
X113097601Y-62988967D01*
X113097612Y-62988973D01*
X113174964Y-63027648D01*
X113226948Y-63076003D01*
X113244538Y-63144786D01*
X113238850Y-63178025D01*
X113231170Y-63202534D01*
X113217421Y-63246406D01*
X113210750Y-63319007D01*
X113210751Y-63830992D01*
X113211014Y-63833850D01*
X113211014Y-63833859D01*
X113211804Y-63842456D01*
X113217421Y-63903594D01*
X113219420Y-63909972D01*
X113219420Y-63909973D01*
X113265129Y-64055828D01*
X113268123Y-64065383D01*
X113355953Y-64210408D01*
X113398845Y-64253300D01*
X113432871Y-64315612D01*
X113435750Y-64342395D01*
X113435750Y-64418640D01*
X113415748Y-64486761D01*
X113398923Y-64507658D01*
X113361707Y-64544939D01*
X113273701Y-64687713D01*
X113220900Y-64846902D01*
X113220200Y-64853735D01*
X113220199Y-64853739D01*
X113217009Y-64884877D01*
X113210750Y-64945965D01*
X113210751Y-65479034D01*
X113221157Y-65579335D01*
X113223336Y-65585866D01*
X113223337Y-65585871D01*
X113252049Y-65671930D01*
X113274236Y-65738432D01*
X113362492Y-65881052D01*
X113481189Y-65999543D01*
X113623963Y-66087549D01*
X113783152Y-66140350D01*
X113789985Y-66141050D01*
X113789989Y-66141051D01*
X113842596Y-66146441D01*
X113882215Y-66150500D01*
X114183905Y-66150500D01*
X114490284Y-66150499D01*
X114590585Y-66140093D01*
X114597116Y-66137914D01*
X114597121Y-66137913D01*
X114742734Y-66089332D01*
X114749682Y-66087014D01*
X114892302Y-65998758D01*
X115010793Y-65880061D01*
X115029812Y-65849207D01*
X115055853Y-65806959D01*
X115098799Y-65737287D01*
X115115972Y-65685514D01*
X115149436Y-65584622D01*
X115151600Y-65578098D01*
X115155372Y-65541290D01*
X115159602Y-65500000D01*
X115161750Y-65479035D01*
X115161749Y-64945966D01*
X115151343Y-64845665D01*
X115149164Y-64839134D01*
X115149163Y-64839129D01*
X115100582Y-64693516D01*
X115098264Y-64686568D01*
X115010008Y-64543948D01*
X114973732Y-64507735D01*
X114939653Y-64445452D01*
X114936750Y-64418562D01*
X114936750Y-64342395D01*
X114956752Y-64274274D01*
X114973655Y-64253300D01*
X115016547Y-64210408D01*
X115104377Y-64065383D01*
X115107372Y-64055828D01*
X115146251Y-63931763D01*
X115155079Y-63903594D01*
X115155956Y-63894047D01*
X115156588Y-63892451D01*
X115157003Y-63890381D01*
X115157379Y-63890456D01*
X115182105Y-63828045D01*
X115239789Y-63786655D01*
X115310692Y-63783022D01*
X115369772Y-63815736D01*
X115388202Y-63833859D01*
X115394881Y-63840427D01*
X115476019Y-63905252D01*
X115606897Y-63965022D01*
X115675018Y-63985024D01*
X115679458Y-63985662D01*
X115679461Y-63985663D01*
X115812987Y-64004861D01*
X115812990Y-64004861D01*
X115817433Y-64005500D01*
X116219821Y-64005500D01*
X116287942Y-64025502D01*
X116334435Y-64079158D01*
X116344539Y-64149432D01*
X116341528Y-64164111D01*
X116331930Y-64199932D01*
X116312677Y-64420000D01*
X116331930Y-64640068D01*
X116389106Y-64853450D01*
X116391428Y-64858431D01*
X116391429Y-64858432D01*
X116433747Y-64949182D01*
X116482466Y-65053661D01*
X116609174Y-65234620D01*
X116765380Y-65390826D01*
X116769888Y-65393983D01*
X116769891Y-65393985D01*
X116929710Y-65505891D01*
X116946338Y-65517534D01*
X116951323Y-65519859D01*
X116951329Y-65519862D01*
X117059538Y-65570320D01*
X117112824Y-65617237D01*
X117132285Y-65685514D01*
X117111743Y-65753474D01*
X117059540Y-65798709D01*
X117027564Y-65813620D01*
X117018068Y-65819103D01*
X116974235Y-65849794D01*
X116965860Y-65860271D01*
X116972928Y-65873718D01*
X117647188Y-66547978D01*
X117661132Y-66555592D01*
X117662965Y-66555461D01*
X117669580Y-66551210D01*
X118347793Y-65872997D01*
X118354223Y-65861223D01*
X118344926Y-65849207D01*
X118301931Y-65819102D01*
X118292445Y-65813624D01*
X118180462Y-65761406D01*
X118127177Y-65714489D01*
X118107716Y-65646212D01*
X118111951Y-65632200D01*
X119828747Y-65632200D01*
X119829306Y-65636444D01*
X119829306Y-65636448D01*
X119835766Y-65685514D01*
X119866129Y-65916149D01*
X119941702Y-66192398D01*
X119943386Y-66196346D01*
X120035769Y-66412933D01*
X120054068Y-66455835D01*
X120201146Y-66701585D01*
X120203830Y-66704936D01*
X120203832Y-66704938D01*
X120283064Y-66803836D01*
X120380215Y-66925100D01*
X120519493Y-67057270D01*
X120581022Y-67115659D01*
X120587962Y-67122245D01*
X120820543Y-67289371D01*
X121073653Y-67423386D01*
X121342610Y-67521810D01*
X121622436Y-67582822D01*
X121661901Y-67585928D01*
X121844597Y-67600307D01*
X121844604Y-67600307D01*
X121847053Y-67600500D01*
X122001992Y-67600500D01*
X122004128Y-67600354D01*
X122004139Y-67600354D01*
X122211460Y-67586220D01*
X122211466Y-67586219D01*
X122215737Y-67585928D01*
X122219932Y-67585059D01*
X122219934Y-67585059D01*
X122456932Y-67535979D01*
X122496186Y-67527850D01*
X122766158Y-67432248D01*
X123020658Y-67300891D01*
X123024159Y-67298430D01*
X123024163Y-67298428D01*
X123251471Y-67138673D01*
X123251477Y-67138668D01*
X123254976Y-67136209D01*
X123445663Y-66959012D01*
X123461633Y-66944172D01*
X123461636Y-66944169D01*
X123464776Y-66941251D01*
X123471684Y-66932812D01*
X123607494Y-66766884D01*
X123646177Y-66719623D01*
X123795820Y-66475427D01*
X123802802Y-66459522D01*
X123909214Y-66217110D01*
X123909215Y-66217106D01*
X123910938Y-66213182D01*
X123989400Y-65937739D01*
X124027612Y-65669245D01*
X124029149Y-65658448D01*
X124029149Y-65658446D01*
X124029754Y-65654196D01*
X124030991Y-65417816D01*
X124031231Y-65372086D01*
X124031231Y-65372080D01*
X124031253Y-65367800D01*
X124027798Y-65341552D01*
X124005982Y-65175842D01*
X123993871Y-65083851D01*
X123918298Y-64807602D01*
X123849105Y-64645381D01*
X123807618Y-64548117D01*
X123807616Y-64548113D01*
X123805932Y-64544165D01*
X123658854Y-64298415D01*
X123639514Y-64274274D01*
X123506452Y-64108186D01*
X123479785Y-64074900D01*
X123292254Y-63896939D01*
X123275147Y-63880705D01*
X123275144Y-63880703D01*
X123272038Y-63877755D01*
X123039457Y-63710629D01*
X122786347Y-63576614D01*
X122517390Y-63478190D01*
X122237564Y-63417178D01*
X122194389Y-63413780D01*
X122015403Y-63399693D01*
X122015396Y-63399693D01*
X122012947Y-63399500D01*
X121858008Y-63399500D01*
X121855872Y-63399646D01*
X121855861Y-63399646D01*
X121648540Y-63413780D01*
X121648534Y-63413781D01*
X121644263Y-63414072D01*
X121640068Y-63414941D01*
X121640066Y-63414941D01*
X121504048Y-63443109D01*
X121363814Y-63472150D01*
X121093842Y-63567752D01*
X120839342Y-63699109D01*
X120835841Y-63701570D01*
X120835837Y-63701572D01*
X120608529Y-63861327D01*
X120608523Y-63861332D01*
X120605024Y-63863791D01*
X120565613Y-63900414D01*
X120450532Y-64007354D01*
X120395224Y-64058749D01*
X120392510Y-64062065D01*
X120392507Y-64062068D01*
X120308986Y-64164111D01*
X120213823Y-64280377D01*
X120064180Y-64524573D01*
X120062453Y-64528507D01*
X120062452Y-64528509D01*
X120010574Y-64646691D01*
X119949062Y-64786818D01*
X119870600Y-65062261D01*
X119845458Y-65238922D01*
X119831387Y-65337790D01*
X119830246Y-65345804D01*
X119829550Y-65478777D01*
X119828859Y-65610894D01*
X119828747Y-65632200D01*
X118111951Y-65632200D01*
X118128258Y-65578252D01*
X118180460Y-65533017D01*
X118198588Y-65524563D01*
X118213662Y-65517534D01*
X118230290Y-65505891D01*
X118390109Y-65393985D01*
X118390112Y-65393983D01*
X118394620Y-65390826D01*
X118550826Y-65234620D01*
X118677534Y-65053661D01*
X118726254Y-64949182D01*
X118768571Y-64858432D01*
X118768572Y-64858431D01*
X118770894Y-64853450D01*
X118828070Y-64640068D01*
X118847323Y-64420000D01*
X118828070Y-64199932D01*
X118811508Y-64138121D01*
X118810826Y-64075563D01*
X118817576Y-64047978D01*
X118824815Y-64018394D01*
X118825500Y-64007352D01*
X118825532Y-64007354D01*
X118825779Y-64003241D01*
X118826128Y-63999334D01*
X118827618Y-63992169D01*
X118825546Y-63915600D01*
X118825500Y-63912192D01*
X118825500Y-63153508D01*
X118843724Y-63088237D01*
X118918127Y-62965383D01*
X118968829Y-62803594D01*
X118975500Y-62730993D01*
X118975499Y-62108124D01*
X118995501Y-62040003D01*
X119049157Y-61993510D01*
X119072823Y-61985430D01*
X119099541Y-61979186D01*
X119187199Y-61947745D01*
X119200908Y-61942828D01*
X119200909Y-61942827D01*
X119208555Y-61940085D01*
X119222486Y-61930514D01*
X119323434Y-61861155D01*
X119323437Y-61861153D01*
X119327142Y-61858607D01*
X119362768Y-61825763D01*
X119376031Y-61813536D01*
X119376034Y-61813533D01*
X119379341Y-61810484D01*
X119415770Y-61765731D01*
X119467328Y-61702392D01*
X119467329Y-61702390D01*
X119470167Y-61698904D01*
X119893215Y-60993823D01*
X122094391Y-60993823D01*
X122095555Y-61002725D01*
X122095555Y-61002728D01*
X122096814Y-61012354D01*
X122112980Y-61135979D01*
X122170720Y-61267203D01*
X122176497Y-61274076D01*
X122176498Y-61274077D01*
X122257190Y-61370072D01*
X122262970Y-61376948D01*
X122270447Y-61381925D01*
X122367459Y-61446502D01*
X122382313Y-61456390D01*
X122519157Y-61499142D01*
X122528129Y-61499306D01*
X122528132Y-61499307D01*
X122593463Y-61500504D01*
X122662499Y-61501770D01*
X122671533Y-61499307D01*
X122792158Y-61466421D01*
X122792160Y-61466420D01*
X122800817Y-61464060D01*
X122922991Y-61389045D01*
X123019200Y-61282754D01*
X123081710Y-61153733D01*
X123105496Y-61012354D01*
X123105647Y-61000000D01*
X123090928Y-60897221D01*
X123086596Y-60866968D01*
X123086595Y-60866965D01*
X123085323Y-60858082D01*
X123071422Y-60827507D01*
X123066179Y-60815977D01*
X123025984Y-60727572D01*
X123000728Y-60698261D01*
X122938260Y-60625763D01*
X122938257Y-60625760D01*
X122932400Y-60618963D01*
X122812095Y-60540985D01*
X122674739Y-60499907D01*
X122665763Y-60499852D01*
X122665762Y-60499852D01*
X122605555Y-60499484D01*
X122531376Y-60499031D01*
X122393529Y-60538428D01*
X122272280Y-60614930D01*
X122266338Y-60621658D01*
X122266337Y-60621659D01*
X122235923Y-60656097D01*
X122177377Y-60722388D01*
X122116447Y-60852163D01*
X122115066Y-60861035D01*
X122098660Y-60966406D01*
X122094391Y-60993823D01*
X119893215Y-60993823D01*
X119993005Y-60827507D01*
X120018945Y-60778330D01*
X120030494Y-60753173D01*
X120044279Y-60718186D01*
X120054247Y-60698261D01*
X120074362Y-60665627D01*
X120115320Y-60624597D01*
X120143540Y-60607134D01*
X120169964Y-60594756D01*
X120194775Y-60586478D01*
X120234653Y-60580001D01*
X120492164Y-60580001D01*
X120765263Y-60580000D01*
X120804930Y-60586407D01*
X120861795Y-60605268D01*
X120865796Y-60606595D01*
X120869934Y-60607377D01*
X120869940Y-60607378D01*
X120993988Y-60630805D01*
X120993993Y-60630806D01*
X120998136Y-60631588D01*
X121002341Y-60631811D01*
X121002347Y-60631812D01*
X121060384Y-60634893D01*
X121060385Y-60634893D01*
X121064586Y-60635116D01*
X121198845Y-60624273D01*
X121333653Y-60573991D01*
X121337597Y-60571837D01*
X121337600Y-60571836D01*
X121392013Y-60542123D01*
X121395965Y-60539965D01*
X121399567Y-60537268D01*
X121399574Y-60537264D01*
X121507528Y-60456448D01*
X121507530Y-60456446D01*
X121511141Y-60453743D01*
X121570537Y-60394347D01*
X121606688Y-60354103D01*
X121623591Y-60333129D01*
X121655252Y-60289224D01*
X121715022Y-60158346D01*
X121735024Y-60090225D01*
X121736131Y-60082526D01*
X121754861Y-59952256D01*
X121754861Y-59952253D01*
X121755500Y-59947810D01*
X121755500Y-58830298D01*
X121775502Y-58762177D01*
X121829158Y-58715684D01*
X121899432Y-58705580D01*
X121964012Y-58735074D01*
X121978880Y-58750341D01*
X123414706Y-60499031D01*
X125094173Y-62544451D01*
X125094304Y-62544611D01*
X125101348Y-62554059D01*
X125120264Y-62582074D01*
X125120268Y-62582078D01*
X125125290Y-62589516D01*
X125140292Y-62601958D01*
X125156093Y-62617613D01*
X125360630Y-62859659D01*
X125387505Y-62891462D01*
X125394680Y-62900806D01*
X125476582Y-63018477D01*
X125616358Y-63219296D01*
X125622629Y-63229270D01*
X125670314Y-63313624D01*
X125810080Y-63560867D01*
X125813588Y-63567073D01*
X125818898Y-63577585D01*
X125968711Y-63912192D01*
X125977473Y-63931763D01*
X125981776Y-63942722D01*
X126106569Y-64310148D01*
X126109832Y-64321465D01*
X126198464Y-64693516D01*
X126199758Y-64698948D01*
X126201950Y-64710524D01*
X126256224Y-65094766D01*
X126257324Y-65106498D01*
X126275467Y-65494109D01*
X126275467Y-65505891D01*
X126257324Y-65893502D01*
X126256224Y-65905234D01*
X126201950Y-66289476D01*
X126199759Y-66301049D01*
X126110524Y-66675631D01*
X126109833Y-66678530D01*
X126106570Y-66689847D01*
X125994790Y-67018963D01*
X125981779Y-67057270D01*
X125977476Y-67068229D01*
X125825579Y-67407493D01*
X125818901Y-67422409D01*
X125813591Y-67432921D01*
X125740662Y-67561932D01*
X125622629Y-67770730D01*
X125616358Y-67780704D01*
X125394681Y-68099192D01*
X125387505Y-68108538D01*
X125306138Y-68204826D01*
X125246892Y-68243947D01*
X125209898Y-68249500D01*
X118375074Y-68249500D01*
X118306953Y-68229498D01*
X118260460Y-68175842D01*
X118250356Y-68105568D01*
X118279850Y-68040988D01*
X118302804Y-68020286D01*
X118345766Y-67990204D01*
X118354139Y-67979729D01*
X118347071Y-67966281D01*
X117672812Y-67292022D01*
X117658868Y-67284408D01*
X117657035Y-67284539D01*
X117650420Y-67288790D01*
X116972207Y-67967003D01*
X116965777Y-67978777D01*
X116975072Y-67990791D01*
X117017196Y-68020286D01*
X117061525Y-68075743D01*
X117068834Y-68146362D01*
X117036804Y-68209723D01*
X116975603Y-68245708D01*
X116944926Y-68249500D01*
X108201165Y-68249500D01*
X108133044Y-68229498D01*
X108086551Y-68175842D01*
X108076447Y-68105568D01*
X108105941Y-68040988D01*
X108133913Y-68017892D01*
X108133662Y-68017534D01*
X108310109Y-67893985D01*
X108310112Y-67893983D01*
X108314620Y-67890826D01*
X108470826Y-67734620D01*
X108597534Y-67553661D01*
X108601629Y-67544881D01*
X108688571Y-67358432D01*
X108688572Y-67358431D01*
X108690894Y-67353450D01*
X108748070Y-67140068D01*
X108767323Y-66920000D01*
X108764478Y-66887481D01*
X108778467Y-66817877D01*
X108827867Y-66766884D01*
X108889999Y-66750500D01*
X109255553Y-66750500D01*
X109323674Y-66770502D01*
X109370167Y-66824158D01*
X109380271Y-66894432D01*
X109350777Y-66959012D01*
X109322788Y-66983062D01*
X109272280Y-67014930D01*
X109177377Y-67122388D01*
X109116447Y-67252163D01*
X109115066Y-67261035D01*
X109101504Y-67348140D01*
X109094391Y-67393823D01*
X109095555Y-67402725D01*
X109095555Y-67402728D01*
X109099504Y-67432927D01*
X109112980Y-67535979D01*
X109170720Y-67667203D01*
X109176497Y-67674076D01*
X109176498Y-67674077D01*
X109183792Y-67682754D01*
X109262970Y-67776948D01*
X109382313Y-67856390D01*
X109519157Y-67899142D01*
X109528129Y-67899306D01*
X109528132Y-67899307D01*
X109593463Y-67900504D01*
X109662499Y-67901770D01*
X109671533Y-67899307D01*
X109792158Y-67866421D01*
X109792160Y-67866420D01*
X109800817Y-67864060D01*
X109922991Y-67789045D01*
X110019200Y-67682754D01*
X110081710Y-67553733D01*
X110105496Y-67412354D01*
X110105647Y-67400000D01*
X110090184Y-67292022D01*
X110086596Y-67266968D01*
X110086595Y-67266965D01*
X110085323Y-67258082D01*
X110025984Y-67127572D01*
X110007598Y-67106234D01*
X109938260Y-67025763D01*
X109938257Y-67025760D01*
X109932400Y-67018963D01*
X109812095Y-66940985D01*
X109793323Y-66935371D01*
X109778092Y-66925475D01*
X116385628Y-66925475D01*
X116404038Y-67135896D01*
X116405941Y-67146691D01*
X116460609Y-67350715D01*
X116464355Y-67361007D01*
X116553623Y-67552441D01*
X116559103Y-67561932D01*
X116589794Y-67605765D01*
X116600271Y-67614140D01*
X116613718Y-67607072D01*
X117287978Y-66932812D01*
X117294356Y-66921132D01*
X118024408Y-66921132D01*
X118024539Y-66922965D01*
X118028790Y-66929580D01*
X118707003Y-67607793D01*
X118718777Y-67614223D01*
X118730793Y-67604926D01*
X118760897Y-67561932D01*
X118766377Y-67552441D01*
X118855645Y-67361007D01*
X118859391Y-67350715D01*
X118914059Y-67146691D01*
X118915962Y-67135896D01*
X118934372Y-66925475D01*
X118934372Y-66914525D01*
X118915962Y-66704104D01*
X118914059Y-66693309D01*
X118859391Y-66489285D01*
X118855645Y-66478993D01*
X118766377Y-66287559D01*
X118760897Y-66278068D01*
X118730206Y-66234235D01*
X118719729Y-66225860D01*
X118706282Y-66232928D01*
X118032022Y-66907188D01*
X118024408Y-66921132D01*
X117294356Y-66921132D01*
X117295592Y-66918868D01*
X117295461Y-66917035D01*
X117291210Y-66910420D01*
X116612997Y-66232207D01*
X116601223Y-66225777D01*
X116589207Y-66235074D01*
X116559103Y-66278068D01*
X116553623Y-66287559D01*
X116464355Y-66478993D01*
X116460609Y-66489285D01*
X116405941Y-66693309D01*
X116404038Y-66704104D01*
X116385628Y-66914525D01*
X116385628Y-66925475D01*
X109778092Y-66925475D01*
X109733789Y-66896690D01*
X109704619Y-66831962D01*
X109715074Y-66761740D01*
X109761835Y-66708317D01*
X109790592Y-66694787D01*
X109795154Y-66693309D01*
X109814546Y-66687027D01*
X109820801Y-66683231D01*
X109826179Y-66680769D01*
X109831455Y-66678127D01*
X109838331Y-66675631D01*
X109898709Y-66636046D01*
X109902419Y-66633705D01*
X109959361Y-66599152D01*
X109959368Y-66599147D01*
X109964160Y-66596239D01*
X109972452Y-66588915D01*
X109972474Y-66588940D01*
X109975569Y-66586194D01*
X109978563Y-66583691D01*
X109984685Y-66579677D01*
X110037384Y-66524047D01*
X110039761Y-66521606D01*
X110733689Y-65827678D01*
X110748102Y-65815291D01*
X110759425Y-65806959D01*
X110759429Y-65806955D01*
X110765324Y-65802617D01*
X110799151Y-65762800D01*
X110806071Y-65755296D01*
X110811670Y-65749697D01*
X110829114Y-65727649D01*
X110831883Y-65724273D01*
X110873892Y-65674825D01*
X110873894Y-65674822D01*
X110878632Y-65669245D01*
X110881960Y-65662726D01*
X110885235Y-65657816D01*
X110888336Y-65652796D01*
X110892881Y-65647051D01*
X110923447Y-65581651D01*
X110925375Y-65577705D01*
X110928044Y-65572479D01*
X110958219Y-65513384D01*
X110959958Y-65506275D01*
X110962017Y-65500740D01*
X110963883Y-65495132D01*
X110966979Y-65488507D01*
X110968950Y-65479034D01*
X110981683Y-65417816D01*
X110982654Y-65413527D01*
X110994487Y-65365168D01*
X110999815Y-65343394D01*
X111000500Y-65332352D01*
X111000531Y-65332354D01*
X111000780Y-65328230D01*
X111001128Y-65324328D01*
X111002617Y-65317170D01*
X111000786Y-65249500D01*
X111000546Y-65240611D01*
X111000500Y-65237204D01*
X111000500Y-63316454D01*
X111001933Y-63297504D01*
X111004048Y-63283604D01*
X111004048Y-63283600D01*
X111005148Y-63276370D01*
X111000915Y-63224325D01*
X111000500Y-63214111D01*
X111000500Y-63206178D01*
X110997246Y-63178264D01*
X110996813Y-63173889D01*
X110992040Y-63115205D01*
X110990961Y-63101941D01*
X110988706Y-63094979D01*
X110987548Y-63089184D01*
X110986191Y-63083442D01*
X110985343Y-63076172D01*
X110960694Y-63008264D01*
X110959277Y-63004136D01*
X110939283Y-62942417D01*
X110939282Y-62942415D01*
X110937027Y-62935454D01*
X110933232Y-62929200D01*
X110930769Y-62923821D01*
X110928127Y-62918545D01*
X110925631Y-62911669D01*
X110886046Y-62851291D01*
X110883705Y-62847581D01*
X110849152Y-62790639D01*
X110849147Y-62790632D01*
X110846239Y-62785840D01*
X110838915Y-62777548D01*
X110838940Y-62777526D01*
X110836194Y-62774431D01*
X110833691Y-62771437D01*
X110829677Y-62765315D01*
X110774047Y-62712616D01*
X110771606Y-62710239D01*
X110009112Y-61947745D01*
X109975086Y-61885433D01*
X109980151Y-61814618D01*
X110022698Y-61757782D01*
X110040515Y-61746634D01*
X110066908Y-61733041D01*
X110066911Y-61733039D01*
X110072239Y-61730295D01*
X110147947Y-61670826D01*
X110232662Y-61604282D01*
X110232667Y-61604278D01*
X110237379Y-61600576D01*
X110241311Y-61596045D01*
X110371079Y-61446502D01*
X110371083Y-61446497D01*
X110375010Y-61441971D01*
X110480166Y-61260201D01*
X110549053Y-61061826D01*
X110557622Y-61002728D01*
X110578325Y-60859944D01*
X110578325Y-60859941D01*
X110579186Y-60854004D01*
X110569477Y-60644233D01*
X110524220Y-60456448D01*
X110521682Y-60445915D01*
X110521681Y-60445913D01*
X110520276Y-60440082D01*
X110477474Y-60345942D01*
X110435840Y-60254374D01*
X110433360Y-60248919D01*
X110311863Y-60077640D01*
X110160169Y-59932425D01*
X110125741Y-59910195D01*
X110079363Y-59856441D01*
X110069409Y-59786146D01*
X110099040Y-59721628D01*
X110116255Y-59705257D01*
X110237857Y-59609738D01*
X110246506Y-59601501D01*
X110377212Y-59450877D01*
X110384147Y-59441153D01*
X110484010Y-59268533D01*
X110488984Y-59257669D01*
X110554407Y-59069273D01*
X110554648Y-59068284D01*
X110553180Y-59057992D01*
X110539615Y-59054000D01*
X107864598Y-59054000D01*
X107851067Y-59057973D01*
X107849712Y-59067399D01*
X107871194Y-59156537D01*
X107875083Y-59167832D01*
X107957629Y-59349382D01*
X107963576Y-59359724D01*
X108078968Y-59522397D01*
X108086761Y-59531425D01*
X108230831Y-59669342D01*
X108240199Y-59676741D01*
X108274686Y-59699009D01*
X108321063Y-59752765D01*
X108331016Y-59823060D01*
X108301383Y-59887577D01*
X108284170Y-59903946D01*
X108167338Y-59995718D01*
X108167333Y-59995722D01*
X108162621Y-59999424D01*
X108158690Y-60003954D01*
X108158689Y-60003955D01*
X108028921Y-60153498D01*
X108028917Y-60153503D01*
X108024990Y-60158029D01*
X107919834Y-60339799D01*
X107889637Y-60426758D01*
X107864255Y-60499852D01*
X107850947Y-60538174D01*
X107850086Y-60544109D01*
X107850086Y-60544111D01*
X107825213Y-60715659D01*
X107820814Y-60745996D01*
X107830523Y-60955767D01*
X107831927Y-60961592D01*
X107831927Y-60961593D01*
X107875936Y-61144199D01*
X107879724Y-61159918D01*
X107882206Y-61165376D01*
X107882207Y-61165380D01*
X107924766Y-61258983D01*
X107966640Y-61351081D01*
X108088137Y-61522360D01*
X108239831Y-61667575D01*
X108391849Y-61765732D01*
X108438225Y-61819486D01*
X108449500Y-61871583D01*
X108449500Y-62133546D01*
X108448067Y-62152496D01*
X108444852Y-62173630D01*
X108445445Y-62180922D01*
X108445445Y-62180925D01*
X108449085Y-62225675D01*
X108449500Y-62235889D01*
X108449500Y-62243822D01*
X108449925Y-62247466D01*
X108452754Y-62271736D01*
X108453187Y-62276111D01*
X108459039Y-62348059D01*
X108461294Y-62355021D01*
X108462452Y-62360816D01*
X108463809Y-62366558D01*
X108464657Y-62373828D01*
X108489306Y-62441736D01*
X108490723Y-62445864D01*
X108512973Y-62514546D01*
X108516768Y-62520800D01*
X108519231Y-62526179D01*
X108521873Y-62531455D01*
X108524369Y-62538331D01*
X108557927Y-62589516D01*
X108563948Y-62598699D01*
X108566295Y-62602419D01*
X108600848Y-62659361D01*
X108600853Y-62659368D01*
X108603761Y-62664160D01*
X108607473Y-62668362D01*
X108607474Y-62668364D01*
X108611085Y-62672452D01*
X108611060Y-62672474D01*
X108613806Y-62675569D01*
X108616309Y-62678563D01*
X108620323Y-62684685D01*
X108625636Y-62689718D01*
X108675952Y-62737383D01*
X108678394Y-62739761D01*
X109462595Y-63523962D01*
X109496621Y-63586274D01*
X109499500Y-63613057D01*
X109499500Y-64886943D01*
X109479498Y-64955064D01*
X109462595Y-64976038D01*
X109226038Y-65212595D01*
X109163726Y-65246621D01*
X109136943Y-65249500D01*
X108790843Y-65249500D01*
X108722722Y-65229498D01*
X108676229Y-65175842D01*
X108666125Y-65105568D01*
X108681726Y-65060497D01*
X108686376Y-65052444D01*
X108775645Y-64861007D01*
X108779391Y-64850715D01*
X108834059Y-64646691D01*
X108835962Y-64635896D01*
X108854372Y-64425475D01*
X108854372Y-64414525D01*
X108835962Y-64204104D01*
X108834059Y-64193309D01*
X108779391Y-63989285D01*
X108775645Y-63978993D01*
X108686377Y-63787559D01*
X108680897Y-63778068D01*
X108650206Y-63734235D01*
X108639729Y-63725860D01*
X108626282Y-63732928D01*
X106892207Y-65467003D01*
X106885777Y-65478777D01*
X106895074Y-65490793D01*
X106938069Y-65520898D01*
X106947555Y-65526376D01*
X106979539Y-65541290D01*
X107032824Y-65588207D01*
X107052285Y-65656484D01*
X107031743Y-65724444D01*
X106979539Y-65769680D01*
X106871320Y-65820143D01*
X106871317Y-65820145D01*
X106866339Y-65822466D01*
X106685380Y-65949174D01*
X106529174Y-66105380D01*
X106402466Y-66286339D01*
X106400145Y-66291317D01*
X106400143Y-66291320D01*
X106321709Y-66459522D01*
X106309106Y-66486550D01*
X106251930Y-66699932D01*
X106232677Y-66920000D01*
X106251930Y-67140068D01*
X106309106Y-67353450D01*
X106311428Y-67358431D01*
X106311429Y-67358432D01*
X106398372Y-67544881D01*
X106402466Y-67553661D01*
X106529174Y-67734620D01*
X106685380Y-67890826D01*
X106689888Y-67893983D01*
X106689891Y-67893985D01*
X106866338Y-68017534D01*
X106865705Y-68018438D01*
X106910830Y-68065767D01*
X106924264Y-68135481D01*
X106897875Y-68201391D01*
X106840042Y-68242571D01*
X106798835Y-68249500D01*
X99536959Y-68249500D01*
X99468838Y-68229498D01*
X99441408Y-68205634D01*
X99440714Y-68204826D01*
X99369602Y-68122097D01*
X99362659Y-68113250D01*
X99359291Y-68108538D01*
X99257584Y-67966281D01*
X99147352Y-67812098D01*
X99141222Y-67802661D01*
X98953633Y-67483486D01*
X98948370Y-67473540D01*
X98790001Y-67138890D01*
X98785654Y-67128529D01*
X98784262Y-67124745D01*
X98657785Y-66781111D01*
X98654373Y-66770387D01*
X98644926Y-66735343D01*
X98558007Y-66412932D01*
X98555566Y-66401948D01*
X98491478Y-66037324D01*
X98490027Y-66026165D01*
X98471058Y-65802617D01*
X98458726Y-65657274D01*
X98458276Y-65646039D01*
X98458303Y-65640412D01*
X98458342Y-65632200D01*
X100768747Y-65632200D01*
X100769306Y-65636444D01*
X100769306Y-65636448D01*
X100775766Y-65685514D01*
X100806129Y-65916149D01*
X100881702Y-66192398D01*
X100883386Y-66196346D01*
X100975769Y-66412933D01*
X100994068Y-66455835D01*
X101141146Y-66701585D01*
X101143830Y-66704936D01*
X101143832Y-66704938D01*
X101223064Y-66803836D01*
X101320215Y-66925100D01*
X101459493Y-67057270D01*
X101521022Y-67115659D01*
X101527962Y-67122245D01*
X101760543Y-67289371D01*
X102013653Y-67423386D01*
X102282610Y-67521810D01*
X102562436Y-67582822D01*
X102601901Y-67585928D01*
X102784597Y-67600307D01*
X102784604Y-67600307D01*
X102787053Y-67600500D01*
X102941992Y-67600500D01*
X102944128Y-67600354D01*
X102944139Y-67600354D01*
X103151460Y-67586220D01*
X103151466Y-67586219D01*
X103155737Y-67585928D01*
X103159932Y-67585059D01*
X103159934Y-67585059D01*
X103396932Y-67535979D01*
X103436186Y-67527850D01*
X103706158Y-67432248D01*
X103960658Y-67300891D01*
X103964159Y-67298430D01*
X103964163Y-67298428D01*
X104191471Y-67138673D01*
X104191477Y-67138668D01*
X104194976Y-67136209D01*
X104385663Y-66959012D01*
X104401633Y-66944172D01*
X104401636Y-66944169D01*
X104404776Y-66941251D01*
X104411684Y-66932812D01*
X104547494Y-66766884D01*
X104586177Y-66719623D01*
X104735820Y-66475427D01*
X104742802Y-66459522D01*
X104849214Y-66217110D01*
X104849215Y-66217106D01*
X104850938Y-66213182D01*
X104929400Y-65937739D01*
X104967612Y-65669245D01*
X104969149Y-65658448D01*
X104969149Y-65658446D01*
X104969754Y-65654196D01*
X104970991Y-65417816D01*
X104971231Y-65372086D01*
X104971231Y-65372080D01*
X104971253Y-65367800D01*
X104967798Y-65341552D01*
X104945982Y-65175842D01*
X104933871Y-65083851D01*
X104858298Y-64807602D01*
X104789105Y-64645381D01*
X104747618Y-64548117D01*
X104747616Y-64548113D01*
X104745932Y-64544165D01*
X104674898Y-64425475D01*
X106305628Y-64425475D01*
X106324038Y-64635896D01*
X106325941Y-64646691D01*
X106380609Y-64850715D01*
X106384355Y-64861007D01*
X106473623Y-65052441D01*
X106479103Y-65061932D01*
X106509794Y-65105765D01*
X106520271Y-65114140D01*
X106533718Y-65107072D01*
X107207978Y-64432812D01*
X107215592Y-64418868D01*
X107215461Y-64417035D01*
X107211210Y-64410420D01*
X106532997Y-63732207D01*
X106521223Y-63725777D01*
X106509207Y-63735074D01*
X106479103Y-63778068D01*
X106473623Y-63787559D01*
X106384355Y-63978993D01*
X106380609Y-63989285D01*
X106325941Y-64193309D01*
X106324038Y-64204104D01*
X106305628Y-64414525D01*
X106305628Y-64425475D01*
X104674898Y-64425475D01*
X104598854Y-64298415D01*
X104579514Y-64274274D01*
X104446452Y-64108186D01*
X104419785Y-64074900D01*
X104232254Y-63896939D01*
X104215147Y-63880705D01*
X104215144Y-63880703D01*
X104212038Y-63877755D01*
X103979457Y-63710629D01*
X103726347Y-63576614D01*
X103457390Y-63478190D01*
X103177564Y-63417178D01*
X103134389Y-63413780D01*
X102955403Y-63399693D01*
X102955396Y-63399693D01*
X102952947Y-63399500D01*
X102798008Y-63399500D01*
X102795872Y-63399646D01*
X102795861Y-63399646D01*
X102588540Y-63413780D01*
X102588534Y-63413781D01*
X102584263Y-63414072D01*
X102580068Y-63414941D01*
X102580066Y-63414941D01*
X102444048Y-63443109D01*
X102303814Y-63472150D01*
X102033842Y-63567752D01*
X101779342Y-63699109D01*
X101775841Y-63701570D01*
X101775837Y-63701572D01*
X101548529Y-63861327D01*
X101548523Y-63861332D01*
X101545024Y-63863791D01*
X101505613Y-63900414D01*
X101390532Y-64007354D01*
X101335224Y-64058749D01*
X101332510Y-64062065D01*
X101332507Y-64062068D01*
X101248986Y-64164111D01*
X101153823Y-64280377D01*
X101004180Y-64524573D01*
X101002453Y-64528507D01*
X101002452Y-64528509D01*
X100950574Y-64646691D01*
X100889062Y-64786818D01*
X100810600Y-65062261D01*
X100785458Y-65238922D01*
X100771387Y-65337790D01*
X100770246Y-65345804D01*
X100769550Y-65478777D01*
X100768859Y-65610894D01*
X100768747Y-65632200D01*
X98458342Y-65632200D01*
X98459362Y-65414621D01*
X98460014Y-65275820D01*
X98460570Y-65264582D01*
X98495327Y-64896023D01*
X98496880Y-64884889D01*
X98564391Y-64520861D01*
X98566934Y-64509903D01*
X98573406Y-64486761D01*
X98666652Y-64153359D01*
X98670156Y-64142692D01*
X98801289Y-63796463D01*
X98805739Y-63786133D01*
X98833389Y-63729097D01*
X98967231Y-63453002D01*
X98972585Y-63443109D01*
X99022323Y-63360271D01*
X106885860Y-63360271D01*
X106892928Y-63373718D01*
X107567188Y-64047978D01*
X107581132Y-64055592D01*
X107582965Y-64055461D01*
X107589580Y-64051210D01*
X108267793Y-63372997D01*
X108274223Y-63361223D01*
X108264926Y-63349207D01*
X108221931Y-63319102D01*
X108212445Y-63313624D01*
X108021007Y-63224355D01*
X108010715Y-63220609D01*
X107806691Y-63165941D01*
X107795896Y-63164038D01*
X107585475Y-63145628D01*
X107574525Y-63145628D01*
X107364104Y-63164038D01*
X107353309Y-63165941D01*
X107149285Y-63220609D01*
X107138993Y-63224355D01*
X106947559Y-63313623D01*
X106938068Y-63319103D01*
X106894235Y-63349794D01*
X106885860Y-63360271D01*
X99022323Y-63360271D01*
X99163166Y-63125700D01*
X99169372Y-63116339D01*
X99292124Y-62948006D01*
X99365529Y-62847344D01*
X99382226Y-62828672D01*
X99384338Y-62826738D01*
X99384341Y-62826734D01*
X99390956Y-62820675D01*
X99401305Y-62803594D01*
X99402110Y-62802266D01*
X99413935Y-62785878D01*
X99918007Y-62193823D01*
X106894391Y-62193823D01*
X106895555Y-62202725D01*
X106895555Y-62202728D01*
X106903686Y-62264901D01*
X106912980Y-62335979D01*
X106916597Y-62344199D01*
X106950887Y-62422128D01*
X106970720Y-62467203D01*
X106976497Y-62474076D01*
X106976498Y-62474077D01*
X107035788Y-62544611D01*
X107062970Y-62576948D01*
X107182313Y-62656390D01*
X107319157Y-62699142D01*
X107328129Y-62699306D01*
X107328132Y-62699307D01*
X107393463Y-62700504D01*
X107462499Y-62701770D01*
X107471533Y-62699307D01*
X107592158Y-62666421D01*
X107592160Y-62666420D01*
X107600817Y-62664060D01*
X107722991Y-62589045D01*
X107754659Y-62554059D01*
X107813178Y-62489407D01*
X107819200Y-62482754D01*
X107881710Y-62353733D01*
X107905496Y-62212354D01*
X107905647Y-62200000D01*
X107896130Y-62133546D01*
X107886596Y-62066968D01*
X107886595Y-62066965D01*
X107885323Y-62058082D01*
X107825984Y-61927572D01*
X107777741Y-61871583D01*
X107738260Y-61825763D01*
X107738257Y-61825760D01*
X107732400Y-61818963D01*
X107612095Y-61740985D01*
X107474739Y-61699907D01*
X107465763Y-61699852D01*
X107465762Y-61699852D01*
X107405555Y-61699484D01*
X107331376Y-61699031D01*
X107193529Y-61738428D01*
X107072280Y-61814930D01*
X106977377Y-61922388D01*
X106916447Y-62052163D01*
X106907734Y-62108124D01*
X106895901Y-62184125D01*
X106894391Y-62193823D01*
X99918007Y-62193823D01*
X105447228Y-55699500D01*
X106068473Y-54969819D01*
X106127863Y-54930917D01*
X106164411Y-54925500D01*
X110545885Y-54925500D01*
X110614006Y-54945502D01*
G37*
%TD.AperFunction*%
%TD*%
M02*
