%TF.GenerationSoftware,KiCad,Pcbnew,(6.0.11)*%
%TF.CreationDate,2023-01-29T21:23:29-06:00*%
%TF.ProjectId,Tap_Photosensor_PCB,5461705f-5068-46f7-946f-73656e736f72,rev?*%
%TF.SameCoordinates,Original*%
%TF.FileFunction,Legend,Top*%
%TF.FilePolarity,Positive*%
%FSLAX46Y46*%
G04 Gerber Fmt 4.6, Leading zero omitted, Abs format (unit mm)*
G04 Created by KiCad (PCBNEW (6.0.11)) date 2023-01-29 21:23:29*
%MOMM*%
%LPD*%
G01*
G04 APERTURE LIST*
%ADD10C,0.325000*%
%ADD11C,0.150000*%
%ADD12C,0.120000*%
G04 APERTURE END LIST*
D10*
X113162500Y-65000000D02*
G75*
G03*
X113162500Y-65000000I-162500J0D01*
G01*
D11*
X107404761Y-60416666D02*
X107452380Y-60273809D01*
X107452380Y-60035714D01*
X107404761Y-59940476D01*
X107357142Y-59892857D01*
X107261904Y-59845238D01*
X107166666Y-59845238D01*
X107071428Y-59892857D01*
X107023809Y-59940476D01*
X106976190Y-60035714D01*
X106928571Y-60226190D01*
X106880952Y-60321428D01*
X106833333Y-60369047D01*
X106738095Y-60416666D01*
X106642857Y-60416666D01*
X106547619Y-60369047D01*
X106500000Y-60321428D01*
X106452380Y-60226190D01*
X106452380Y-59988095D01*
X106500000Y-59845238D01*
X106500000Y-58130952D02*
X106452380Y-58226190D01*
X106452380Y-58369047D01*
X106500000Y-58511904D01*
X106595238Y-58607142D01*
X106690476Y-58654761D01*
X106880952Y-58702380D01*
X107023809Y-58702380D01*
X107214285Y-58654761D01*
X107309523Y-58607142D01*
X107404761Y-58511904D01*
X107452380Y-58369047D01*
X107452380Y-58273809D01*
X107404761Y-58130952D01*
X107357142Y-58083333D01*
X107023809Y-58083333D01*
X107023809Y-58273809D01*
X107071428Y-56892857D02*
X107071428Y-56130952D01*
X107452380Y-56511904D02*
X106690476Y-56511904D01*
X101435273Y-60241581D02*
X101133663Y-60610076D01*
X101471997Y-60948536D01*
X101465309Y-60881525D01*
X101488781Y-60777665D01*
X101639586Y-60593417D01*
X101736758Y-60549879D01*
X101803768Y-60543191D01*
X101907628Y-60566663D01*
X102091876Y-60717468D01*
X102135414Y-60814640D01*
X102142103Y-60881650D01*
X102118630Y-60985510D01*
X101967825Y-61169758D01*
X101870654Y-61213296D01*
X101803643Y-61219985D01*
X102215927Y-60265178D02*
X102698503Y-59675586D01*
X102564607Y-59012169D02*
X102557918Y-58945159D01*
X102581391Y-58841299D01*
X102732196Y-58657051D01*
X102829367Y-58613513D01*
X102896378Y-58606824D01*
X103000238Y-58630297D01*
X103073937Y-58690619D01*
X103154325Y-58817951D01*
X103234587Y-59622078D01*
X103626680Y-59143034D01*
X103653684Y-58057488D02*
X104169578Y-58479742D01*
X103208083Y-58000448D02*
X103610021Y-58637110D01*
X104002114Y-58158066D01*
X103637026Y-57551565D02*
X104621993Y-57926999D01*
X104059280Y-57035671D01*
D12*
%TO.C,D1*%
X110750000Y-56000000D02*
X110750000Y-59900000D01*
X112750000Y-56000000D02*
X112750000Y-59900000D01*
X112750000Y-56000000D02*
X110750000Y-56000000D01*
%TO.C,D2*%
X113451250Y-65200000D02*
X113451250Y-67485000D01*
X114921250Y-67485000D02*
X114921250Y-65200000D01*
X113451250Y-67485000D02*
X114921250Y-67485000D01*
%TO.C,C2*%
X119990000Y-60109420D02*
X119990000Y-60390580D01*
X121010000Y-60109420D02*
X121010000Y-60390580D01*
%TO.C,U1*%
X119360000Y-56690000D02*
X119360000Y-59410000D01*
X119130000Y-55550000D02*
X119130000Y-56690000D01*
X119360000Y-56690000D02*
X119130000Y-56690000D01*
X114640000Y-59410000D02*
X114640000Y-56690000D01*
X114640000Y-56690000D02*
X114870000Y-56690000D01*
X119360000Y-59410000D02*
X118050000Y-59410000D01*
X115950000Y-59410000D02*
X114640000Y-59410000D01*
%TO.C,R3*%
X114708750Y-62512742D02*
X114708750Y-62987258D01*
X113663750Y-62512742D02*
X113663750Y-62987258D01*
%TO.C,C1*%
X114200000Y-57929420D02*
X114200000Y-58210580D01*
X113180000Y-57929420D02*
X113180000Y-58210580D01*
%TO.C,R5*%
X117012742Y-62922500D02*
X117487258Y-62922500D01*
X117012742Y-61877500D02*
X117487258Y-61877500D01*
%TD*%
M02*
