%TF.GenerationSoftware,KiCad,Pcbnew,(6.0.11)*%
%TF.CreationDate,2023-01-29T21:23:29-06:00*%
%TF.ProjectId,Tap_Photosensor_PCB,5461705f-5068-46f7-946f-73656e736f72,rev?*%
%TF.SameCoordinates,Original*%
%TF.FileFunction,Copper,L2,Bot*%
%TF.FilePolarity,Positive*%
%FSLAX46Y46*%
G04 Gerber Fmt 4.6, Leading zero omitted, Abs format (unit mm)*
G04 Created by KiCad (PCBNEW (6.0.11)) date 2023-01-29 21:23:29*
%MOMM*%
%LPD*%
G01*
G04 APERTURE LIST*
G04 Aperture macros list*
%AMRoundRect*
0 Rectangle with rounded corners*
0 $1 Rounding radius*
0 $2 $3 $4 $5 $6 $7 $8 $9 X,Y pos of 4 corners*
0 Add a 4 corners polygon primitive as box body*
4,1,4,$2,$3,$4,$5,$6,$7,$8,$9,$2,$3,0*
0 Add four circle primitives for the rounded corners*
1,1,$1+$1,$2,$3*
1,1,$1+$1,$4,$5*
1,1,$1+$1,$6,$7*
1,1,$1+$1,$8,$9*
0 Add four rect primitives between the rounded corners*
20,1,$1+$1,$2,$3,$4,$5,0*
20,1,$1+$1,$4,$5,$6,$7,0*
20,1,$1+$1,$6,$7,$8,$9,0*
20,1,$1+$1,$8,$9,$2,$3,0*%
G04 Aperture macros list end*
%TA.AperFunction,ComponentPad*%
%ADD10RoundRect,0.250000X-0.625000X0.350000X-0.625000X-0.350000X0.625000X-0.350000X0.625000X0.350000X0*%
%TD*%
%TA.AperFunction,ComponentPad*%
%ADD11O,1.750000X1.200000*%
%TD*%
%TA.AperFunction,ComponentPad*%
%ADD12C,1.524000*%
%TD*%
%TA.AperFunction,ViaPad*%
%ADD13C,0.800000*%
%TD*%
G04 APERTURE END LIST*
D10*
%TO.P,J1,1,Pin_1*%
%TO.N,Vin*%
X109200000Y-56800000D03*
D11*
%TO.P,J1,2,Pin_2*%
%TO.N,GND*%
X109200000Y-58800000D03*
%TO.P,J1,3,Pin_3*%
%TO.N,SIG*%
X109200000Y-60800000D03*
%TD*%
D12*
%TO.P,U3,1,Anode*%
%TO.N,/current limit u3 led*%
X117580000Y-64420000D03*
%TO.P,U3,2,Cathode*%
%TO.N,GND*%
X117660000Y-66920000D03*
%TO.P,U3,3,Collector*%
%TO.N,SIG*%
X107500000Y-66920000D03*
%TO.P,U3,4,Emitter*%
%TO.N,GND*%
X107580000Y-64420000D03*
%TD*%
D13*
%TO.N,GND*%
X105000000Y-57200000D03*
X111750000Y-64000000D03*
X115500000Y-64500000D03*
X115500000Y-66000000D03*
X106000000Y-61000000D03*
X119500000Y-62500000D03*
X111750000Y-61750000D03*
X105000000Y-61800000D03*
X111750000Y-66750000D03*
X107000000Y-61000000D03*
X106200000Y-62200000D03*
X115250000Y-59750000D03*
X124250000Y-62500000D03*
X105400000Y-60200000D03*
%TD*%
%TA.AperFunction,Conductor*%
%TO.N,GND*%
G36*
X118843119Y-54953502D02*
G01*
X118872378Y-54979543D01*
X121408740Y-58068575D01*
X124561596Y-61908434D01*
X125087879Y-62549394D01*
X125094921Y-62558839D01*
X125119300Y-62594943D01*
X125134680Y-62607698D01*
X125150479Y-62623351D01*
X125344314Y-62852732D01*
X125381160Y-62896335D01*
X125388335Y-62905679D01*
X125432557Y-62969214D01*
X125609585Y-63223555D01*
X125615856Y-63233529D01*
X125736484Y-63446917D01*
X125799823Y-63558962D01*
X125806445Y-63570677D01*
X125811757Y-63581192D01*
X125943091Y-63874527D01*
X125970028Y-63934690D01*
X125974334Y-63945657D01*
X126093841Y-64297521D01*
X126098882Y-64312364D01*
X126102146Y-64323686D01*
X126191898Y-64700438D01*
X126194090Y-64712014D01*
X126248259Y-65095512D01*
X126249359Y-65107244D01*
X126267467Y-65494109D01*
X126267467Y-65505891D01*
X126249359Y-65892756D01*
X126248259Y-65904488D01*
X126194090Y-66287986D01*
X126191898Y-66299562D01*
X126102146Y-66676314D01*
X126098883Y-66687631D01*
X126058744Y-66805813D01*
X125974334Y-67054342D01*
X125970029Y-67065308D01*
X125934392Y-67144904D01*
X125811758Y-67418806D01*
X125806446Y-67429322D01*
X125780686Y-67474890D01*
X125615856Y-67766471D01*
X125609585Y-67776445D01*
X125523493Y-67900136D01*
X125445433Y-68012287D01*
X125388336Y-68094319D01*
X125381159Y-68103665D01*
X125302434Y-68196826D01*
X125243188Y-68235947D01*
X125206195Y-68241500D01*
X118386500Y-68241500D01*
X118318379Y-68221498D01*
X118271886Y-68167842D01*
X118261782Y-68097568D01*
X118291276Y-68032988D01*
X118314230Y-68012287D01*
X118345764Y-67990207D01*
X118354139Y-67979729D01*
X118347071Y-67966281D01*
X117672812Y-67292022D01*
X117658868Y-67284408D01*
X117657035Y-67284539D01*
X117650420Y-67288790D01*
X116972207Y-67967003D01*
X116965777Y-67978777D01*
X116975074Y-67990793D01*
X117005770Y-68012287D01*
X117050099Y-68067744D01*
X117057408Y-68138363D01*
X117025378Y-68201724D01*
X116964176Y-68237709D01*
X116933500Y-68241500D01*
X108227373Y-68241500D01*
X108159252Y-68221498D01*
X108112759Y-68167842D01*
X108102655Y-68097568D01*
X108132149Y-68032988D01*
X108155102Y-68012287D01*
X108315270Y-67900136D01*
X108315273Y-67900134D01*
X108319781Y-67896977D01*
X108476977Y-67739781D01*
X108484003Y-67729748D01*
X108601331Y-67562185D01*
X108601332Y-67562183D01*
X108604488Y-67557676D01*
X108606811Y-67552694D01*
X108606814Y-67552689D01*
X108696117Y-67361178D01*
X108696118Y-67361177D01*
X108698440Y-67356196D01*
X108755978Y-67141463D01*
X108774874Y-66925475D01*
X116385628Y-66925475D01*
X116404038Y-67135896D01*
X116405941Y-67146691D01*
X116460609Y-67350715D01*
X116464355Y-67361007D01*
X116553623Y-67552441D01*
X116559103Y-67561932D01*
X116589794Y-67605765D01*
X116600271Y-67614140D01*
X116613718Y-67607072D01*
X117287978Y-66932812D01*
X117294356Y-66921132D01*
X118024408Y-66921132D01*
X118024539Y-66922965D01*
X118028790Y-66929580D01*
X118707003Y-67607793D01*
X118718777Y-67614223D01*
X118730793Y-67604926D01*
X118760897Y-67561932D01*
X118766377Y-67552441D01*
X118855645Y-67361007D01*
X118859391Y-67350715D01*
X118914059Y-67146691D01*
X118915962Y-67135896D01*
X118934372Y-66925475D01*
X118934372Y-66914525D01*
X118915962Y-66704104D01*
X118914059Y-66693309D01*
X118859391Y-66489285D01*
X118855645Y-66478993D01*
X118766377Y-66287559D01*
X118760897Y-66278068D01*
X118730206Y-66234235D01*
X118719729Y-66225860D01*
X118706282Y-66232928D01*
X118032022Y-66907188D01*
X118024408Y-66921132D01*
X117294356Y-66921132D01*
X117295592Y-66918868D01*
X117295461Y-66917035D01*
X117291210Y-66910420D01*
X116612997Y-66232207D01*
X116601223Y-66225777D01*
X116589207Y-66235074D01*
X116559103Y-66278068D01*
X116553623Y-66287559D01*
X116464355Y-66478993D01*
X116460609Y-66489285D01*
X116405941Y-66693309D01*
X116404038Y-66704104D01*
X116385628Y-66914525D01*
X116385628Y-66925475D01*
X108774874Y-66925475D01*
X108775353Y-66920000D01*
X108755978Y-66698537D01*
X108698440Y-66483804D01*
X108685253Y-66455524D01*
X108606814Y-66287311D01*
X108606811Y-66287306D01*
X108604488Y-66282324D01*
X108601331Y-66277815D01*
X108480136Y-66104730D01*
X108480134Y-66104727D01*
X108476977Y-66100219D01*
X108319781Y-65943023D01*
X108315273Y-65939866D01*
X108315270Y-65939864D01*
X108239505Y-65886813D01*
X108137677Y-65815512D01*
X108123338Y-65808826D01*
X108109924Y-65802570D01*
X108056640Y-65755652D01*
X108037180Y-65687375D01*
X108057723Y-65619415D01*
X108109926Y-65574181D01*
X108212445Y-65526376D01*
X108221931Y-65520898D01*
X108265764Y-65490207D01*
X108274139Y-65479729D01*
X108267071Y-65466281D01*
X107592812Y-64792022D01*
X107578868Y-64784408D01*
X107577035Y-64784539D01*
X107570420Y-64788790D01*
X106892207Y-65467003D01*
X106885777Y-65478777D01*
X106895074Y-65490793D01*
X106938069Y-65520898D01*
X106947555Y-65526376D01*
X106970075Y-65536877D01*
X107023360Y-65583795D01*
X107042821Y-65652072D01*
X107022279Y-65720032D01*
X106970076Y-65765266D01*
X106968891Y-65765819D01*
X106867311Y-65813186D01*
X106867306Y-65813189D01*
X106862324Y-65815512D01*
X106857817Y-65818668D01*
X106857815Y-65818669D01*
X106684730Y-65939864D01*
X106684727Y-65939866D01*
X106680219Y-65943023D01*
X106523023Y-66100219D01*
X106519866Y-66104727D01*
X106519864Y-66104730D01*
X106398669Y-66277815D01*
X106395512Y-66282324D01*
X106393189Y-66287306D01*
X106393186Y-66287311D01*
X106314747Y-66455524D01*
X106301560Y-66483804D01*
X106244022Y-66698537D01*
X106224647Y-66920000D01*
X106244022Y-67141463D01*
X106301560Y-67356196D01*
X106303882Y-67361177D01*
X106303883Y-67361178D01*
X106393186Y-67552689D01*
X106393189Y-67552694D01*
X106395512Y-67557676D01*
X106398668Y-67562183D01*
X106398669Y-67562185D01*
X106515998Y-67729748D01*
X106523023Y-67739781D01*
X106680219Y-67896977D01*
X106684727Y-67900134D01*
X106684730Y-67900136D01*
X106844898Y-68012287D01*
X106889226Y-68067744D01*
X106896535Y-68138364D01*
X106864504Y-68201724D01*
X106803303Y-68237709D01*
X106772627Y-68241500D01*
X99540622Y-68241500D01*
X99472501Y-68221498D01*
X99445071Y-68197634D01*
X99394123Y-68138364D01*
X99375896Y-68117159D01*
X99368953Y-68108311D01*
X99365632Y-68103665D01*
X99261506Y-67958024D01*
X99154058Y-67807737D01*
X99147928Y-67798299D01*
X99126315Y-67761525D01*
X99113092Y-67729748D01*
X98715745Y-66219830D01*
X98561238Y-65632703D01*
X100760743Y-65632703D01*
X100798268Y-65917734D01*
X100874129Y-66195036D01*
X100986923Y-66459476D01*
X101134561Y-66706161D01*
X101314313Y-66930528D01*
X101522851Y-67128423D01*
X101545787Y-67144904D01*
X101740109Y-67284539D01*
X101756317Y-67296186D01*
X101760112Y-67298195D01*
X101760113Y-67298196D01*
X101781869Y-67309715D01*
X102010392Y-67430712D01*
X102280373Y-67529511D01*
X102561264Y-67590755D01*
X102589841Y-67593004D01*
X102784282Y-67608307D01*
X102784291Y-67608307D01*
X102786739Y-67608500D01*
X102942271Y-67608500D01*
X102944407Y-67608354D01*
X102944418Y-67608354D01*
X103152548Y-67594165D01*
X103152554Y-67594164D01*
X103156825Y-67593873D01*
X103161020Y-67593004D01*
X103161022Y-67593004D01*
X103297583Y-67564724D01*
X103438342Y-67535574D01*
X103709343Y-67439607D01*
X103964812Y-67307750D01*
X103968313Y-67305289D01*
X103968317Y-67305287D01*
X104096961Y-67214874D01*
X104200023Y-67142441D01*
X104410622Y-66946740D01*
X104592713Y-66724268D01*
X104742927Y-66479142D01*
X104775140Y-66405760D01*
X104856757Y-66219830D01*
X104858483Y-66215898D01*
X104937244Y-65939406D01*
X104971977Y-65695353D01*
X104977146Y-65659036D01*
X104977146Y-65659034D01*
X104977751Y-65654784D01*
X104977805Y-65644647D01*
X104979235Y-65371583D01*
X104979235Y-65371576D01*
X104979257Y-65367297D01*
X104941732Y-65082266D01*
X104936239Y-65062185D01*
X104881249Y-64861178D01*
X104865871Y-64804964D01*
X104798398Y-64646776D01*
X104754763Y-64544476D01*
X104754761Y-64544472D01*
X104753077Y-64540524D01*
X104684222Y-64425475D01*
X106305628Y-64425475D01*
X106324038Y-64635896D01*
X106325941Y-64646691D01*
X106380609Y-64850715D01*
X106384355Y-64861007D01*
X106473623Y-65052441D01*
X106479103Y-65061932D01*
X106509794Y-65105765D01*
X106520271Y-65114140D01*
X106533718Y-65107072D01*
X107207978Y-64432812D01*
X107214356Y-64421132D01*
X107944408Y-64421132D01*
X107944539Y-64422965D01*
X107948790Y-64429580D01*
X108627003Y-65107793D01*
X108638777Y-65114223D01*
X108650793Y-65104926D01*
X108680897Y-65061932D01*
X108686377Y-65052441D01*
X108775645Y-64861007D01*
X108779391Y-64850715D01*
X108834059Y-64646691D01*
X108835962Y-64635896D01*
X108854372Y-64425475D01*
X108854372Y-64420000D01*
X116304647Y-64420000D01*
X116324022Y-64641463D01*
X116381560Y-64856196D01*
X116383882Y-64861177D01*
X116383883Y-64861178D01*
X116473186Y-65052689D01*
X116473189Y-65052694D01*
X116475512Y-65057676D01*
X116478668Y-65062183D01*
X116478669Y-65062185D01*
X116515107Y-65114223D01*
X116603023Y-65239781D01*
X116760219Y-65396977D01*
X116764727Y-65400134D01*
X116764730Y-65400136D01*
X116840495Y-65453187D01*
X116942323Y-65524488D01*
X116947308Y-65526813D01*
X116947314Y-65526816D01*
X117050074Y-65574733D01*
X117103360Y-65621650D01*
X117122821Y-65689927D01*
X117102279Y-65757887D01*
X117050077Y-65803122D01*
X117027560Y-65813622D01*
X117018068Y-65819103D01*
X116974235Y-65849794D01*
X116965860Y-65860271D01*
X116972928Y-65873718D01*
X117647188Y-66547978D01*
X117661132Y-66555592D01*
X117662965Y-66555461D01*
X117669580Y-66551210D01*
X118347793Y-65872997D01*
X118354223Y-65861223D01*
X118344926Y-65849207D01*
X118301931Y-65819102D01*
X118292445Y-65813624D01*
X118189926Y-65765819D01*
X118136641Y-65718902D01*
X118117180Y-65650624D01*
X118122597Y-65632703D01*
X119820743Y-65632703D01*
X119858268Y-65917734D01*
X119934129Y-66195036D01*
X120046923Y-66459476D01*
X120194561Y-66706161D01*
X120374313Y-66930528D01*
X120582851Y-67128423D01*
X120605787Y-67144904D01*
X120800109Y-67284539D01*
X120816317Y-67296186D01*
X120820112Y-67298195D01*
X120820113Y-67298196D01*
X120841869Y-67309715D01*
X121070392Y-67430712D01*
X121340373Y-67529511D01*
X121621264Y-67590755D01*
X121649841Y-67593004D01*
X121844282Y-67608307D01*
X121844291Y-67608307D01*
X121846739Y-67608500D01*
X122002271Y-67608500D01*
X122004407Y-67608354D01*
X122004418Y-67608354D01*
X122212548Y-67594165D01*
X122212554Y-67594164D01*
X122216825Y-67593873D01*
X122221020Y-67593004D01*
X122221022Y-67593004D01*
X122357583Y-67564724D01*
X122498342Y-67535574D01*
X122769343Y-67439607D01*
X123024812Y-67307750D01*
X123028313Y-67305289D01*
X123028317Y-67305287D01*
X123156961Y-67214874D01*
X123260023Y-67142441D01*
X123470622Y-66946740D01*
X123652713Y-66724268D01*
X123802927Y-66479142D01*
X123835140Y-66405760D01*
X123916757Y-66219830D01*
X123918483Y-66215898D01*
X123997244Y-65939406D01*
X124031977Y-65695353D01*
X124037146Y-65659036D01*
X124037146Y-65659034D01*
X124037751Y-65654784D01*
X124037805Y-65644647D01*
X124039235Y-65371583D01*
X124039235Y-65371576D01*
X124039257Y-65367297D01*
X124001732Y-65082266D01*
X123996239Y-65062185D01*
X123941249Y-64861178D01*
X123925871Y-64804964D01*
X123858398Y-64646776D01*
X123814763Y-64544476D01*
X123814761Y-64544472D01*
X123813077Y-64540524D01*
X123665439Y-64293839D01*
X123485687Y-64069472D01*
X123277149Y-63871577D01*
X123043683Y-63703814D01*
X123021843Y-63692250D01*
X122998654Y-63679972D01*
X122789608Y-63569288D01*
X122519627Y-63470489D01*
X122238736Y-63409245D01*
X122207685Y-63406801D01*
X122015718Y-63391693D01*
X122015709Y-63391693D01*
X122013261Y-63391500D01*
X121857729Y-63391500D01*
X121855593Y-63391646D01*
X121855582Y-63391646D01*
X121647452Y-63405835D01*
X121647446Y-63405836D01*
X121643175Y-63406127D01*
X121638980Y-63406996D01*
X121638978Y-63406996D01*
X121502416Y-63435277D01*
X121361658Y-63464426D01*
X121090657Y-63560393D01*
X120835188Y-63692250D01*
X120831687Y-63694711D01*
X120831683Y-63694713D01*
X120720314Y-63772985D01*
X120599977Y-63857559D01*
X120389378Y-64053260D01*
X120207287Y-64275732D01*
X120057073Y-64520858D01*
X119941517Y-64784102D01*
X119940342Y-64788229D01*
X119940341Y-64788230D01*
X119910920Y-64891513D01*
X119862756Y-65060594D01*
X119822249Y-65345216D01*
X119822227Y-65349505D01*
X119822226Y-65349512D01*
X119820765Y-65628417D01*
X119820743Y-65632703D01*
X118122597Y-65632703D01*
X118137722Y-65582665D01*
X118189924Y-65537430D01*
X118203338Y-65531174D01*
X118217677Y-65524488D01*
X118319505Y-65453187D01*
X118395270Y-65400136D01*
X118395273Y-65400134D01*
X118399781Y-65396977D01*
X118556977Y-65239781D01*
X118644894Y-65114223D01*
X118681331Y-65062185D01*
X118681332Y-65062183D01*
X118684488Y-65057676D01*
X118686811Y-65052694D01*
X118686814Y-65052689D01*
X118776117Y-64861178D01*
X118776118Y-64861177D01*
X118778440Y-64856196D01*
X118835978Y-64641463D01*
X118855353Y-64420000D01*
X118835978Y-64198537D01*
X118778440Y-63983804D01*
X118726108Y-63871577D01*
X118686814Y-63787311D01*
X118686811Y-63787306D01*
X118684488Y-63782324D01*
X118677949Y-63772985D01*
X118560136Y-63604730D01*
X118560134Y-63604727D01*
X118556977Y-63600219D01*
X118399781Y-63443023D01*
X118395273Y-63439866D01*
X118395270Y-63439864D01*
X118319505Y-63386813D01*
X118217677Y-63315512D01*
X118212695Y-63313189D01*
X118212690Y-63313186D01*
X118021178Y-63223883D01*
X118021177Y-63223882D01*
X118016196Y-63221560D01*
X118010888Y-63220138D01*
X118010886Y-63220137D01*
X117945051Y-63202497D01*
X117801463Y-63164022D01*
X117580000Y-63144647D01*
X117358537Y-63164022D01*
X117214949Y-63202497D01*
X117149114Y-63220137D01*
X117149112Y-63220138D01*
X117143804Y-63221560D01*
X117138823Y-63223882D01*
X117138822Y-63223883D01*
X116947311Y-63313186D01*
X116947306Y-63313189D01*
X116942324Y-63315512D01*
X116937817Y-63318668D01*
X116937815Y-63318669D01*
X116764730Y-63439864D01*
X116764727Y-63439866D01*
X116760219Y-63443023D01*
X116603023Y-63600219D01*
X116599866Y-63604727D01*
X116599864Y-63604730D01*
X116482051Y-63772985D01*
X116475512Y-63782324D01*
X116473189Y-63787306D01*
X116473186Y-63787311D01*
X116433892Y-63871577D01*
X116381560Y-63983804D01*
X116324022Y-64198537D01*
X116304647Y-64420000D01*
X108854372Y-64420000D01*
X108854372Y-64414525D01*
X108835962Y-64204104D01*
X108834059Y-64193309D01*
X108779391Y-63989285D01*
X108775645Y-63978993D01*
X108686377Y-63787559D01*
X108680897Y-63778068D01*
X108650206Y-63734235D01*
X108639729Y-63725860D01*
X108626282Y-63732928D01*
X107952022Y-64407188D01*
X107944408Y-64421132D01*
X107214356Y-64421132D01*
X107215592Y-64418868D01*
X107215461Y-64417035D01*
X107211210Y-64410420D01*
X106532997Y-63732207D01*
X106521223Y-63725777D01*
X106509207Y-63735074D01*
X106479103Y-63778068D01*
X106473623Y-63787559D01*
X106384355Y-63978993D01*
X106380609Y-63989285D01*
X106325941Y-64193309D01*
X106324038Y-64204104D01*
X106305628Y-64414525D01*
X106305628Y-64425475D01*
X104684222Y-64425475D01*
X104605439Y-64293839D01*
X104425687Y-64069472D01*
X104217149Y-63871577D01*
X103983683Y-63703814D01*
X103961843Y-63692250D01*
X103938654Y-63679972D01*
X103729608Y-63569288D01*
X103459627Y-63470489D01*
X103178736Y-63409245D01*
X103147685Y-63406801D01*
X102955718Y-63391693D01*
X102955709Y-63391693D01*
X102953261Y-63391500D01*
X102797729Y-63391500D01*
X102795593Y-63391646D01*
X102795582Y-63391646D01*
X102587452Y-63405835D01*
X102587446Y-63405836D01*
X102583175Y-63406127D01*
X102578980Y-63406996D01*
X102578978Y-63406996D01*
X102442416Y-63435277D01*
X102301658Y-63464426D01*
X102030657Y-63560393D01*
X101775188Y-63692250D01*
X101771687Y-63694711D01*
X101771683Y-63694713D01*
X101660314Y-63772985D01*
X101539977Y-63857559D01*
X101329378Y-64053260D01*
X101147287Y-64275732D01*
X100997073Y-64520858D01*
X100881517Y-64784102D01*
X100880342Y-64788229D01*
X100880341Y-64788230D01*
X100850920Y-64891513D01*
X100802756Y-65060594D01*
X100762249Y-65345216D01*
X100762227Y-65349505D01*
X100762226Y-65349512D01*
X100760765Y-65628417D01*
X100760743Y-65632703D01*
X98561238Y-65632703D01*
X98473172Y-65298053D01*
X98469580Y-65254160D01*
X98503250Y-64897131D01*
X98504805Y-64885986D01*
X98539216Y-64700438D01*
X98572185Y-64522665D01*
X98574724Y-64511721D01*
X98674253Y-64155856D01*
X98677757Y-64145189D01*
X98808636Y-63799627D01*
X98813086Y-63789298D01*
X98814050Y-63787311D01*
X98974267Y-63456810D01*
X98979621Y-63446917D01*
X99003591Y-63406996D01*
X99031646Y-63360271D01*
X106885860Y-63360271D01*
X106892928Y-63373718D01*
X107567188Y-64047978D01*
X107581132Y-64055592D01*
X107582965Y-64055461D01*
X107589580Y-64051210D01*
X108267793Y-63372997D01*
X108274223Y-63361223D01*
X108264926Y-63349207D01*
X108221931Y-63319102D01*
X108212445Y-63313624D01*
X108021007Y-63224355D01*
X108010715Y-63220609D01*
X107806691Y-63165941D01*
X107795896Y-63164038D01*
X107585475Y-63145628D01*
X107574525Y-63145628D01*
X107364104Y-63164038D01*
X107353309Y-63165941D01*
X107149285Y-63220609D01*
X107138993Y-63224355D01*
X106947559Y-63313623D01*
X106938068Y-63319103D01*
X106894235Y-63349794D01*
X106885860Y-63360271D01*
X99031646Y-63360271D01*
X99169834Y-63130120D01*
X99176040Y-63120759D01*
X99371494Y-62852728D01*
X99388194Y-62834055D01*
X99390585Y-62831865D01*
X99390586Y-62831864D01*
X99397205Y-62825801D01*
X99408622Y-62806956D01*
X99420447Y-62790568D01*
X101161516Y-60745604D01*
X107812787Y-60745604D01*
X107822567Y-60956899D01*
X107872125Y-61162534D01*
X107874607Y-61167992D01*
X107874608Y-61167996D01*
X107918053Y-61263546D01*
X107959674Y-61355087D01*
X108082054Y-61527611D01*
X108234850Y-61673881D01*
X108412548Y-61788620D01*
X108418114Y-61790863D01*
X108603168Y-61865442D01*
X108603171Y-61865443D01*
X108608737Y-61867686D01*
X108816337Y-61908228D01*
X108821899Y-61908500D01*
X109527846Y-61908500D01*
X109685566Y-61893452D01*
X109888534Y-61833908D01*
X109972111Y-61790863D01*
X110071249Y-61739804D01*
X110071252Y-61739802D01*
X110076580Y-61737058D01*
X110242920Y-61606396D01*
X110246852Y-61601865D01*
X110246855Y-61601862D01*
X110377621Y-61451167D01*
X110381552Y-61446637D01*
X110384552Y-61441451D01*
X110384555Y-61441447D01*
X110484467Y-61268742D01*
X110487473Y-61263546D01*
X110556861Y-61063729D01*
X110587213Y-60854396D01*
X110577433Y-60643101D01*
X110527875Y-60437466D01*
X110484525Y-60342122D01*
X110442806Y-60250368D01*
X110440326Y-60244913D01*
X110317946Y-60072389D01*
X110165150Y-59926119D01*
X110160119Y-59922870D01*
X110160112Y-59922865D01*
X110132393Y-59904967D01*
X110086016Y-59851211D01*
X110076063Y-59780915D01*
X110105696Y-59716398D01*
X110122909Y-59700030D01*
X110237857Y-59609738D01*
X110246506Y-59601501D01*
X110377212Y-59450877D01*
X110384147Y-59441153D01*
X110484010Y-59268533D01*
X110488984Y-59257669D01*
X110554407Y-59069273D01*
X110554648Y-59068284D01*
X110553180Y-59057992D01*
X110539615Y-59054000D01*
X107864598Y-59054000D01*
X107851067Y-59057973D01*
X107849712Y-59067399D01*
X107871194Y-59156537D01*
X107875083Y-59167832D01*
X107957629Y-59349382D01*
X107963576Y-59359724D01*
X108078968Y-59522397D01*
X108086761Y-59531425D01*
X108230831Y-59669342D01*
X108240200Y-59676741D01*
X108267577Y-59694418D01*
X108313955Y-59748172D01*
X108323909Y-59818468D01*
X108294278Y-59882985D01*
X108277063Y-59899356D01*
X108157080Y-59993604D01*
X108153148Y-59998135D01*
X108153145Y-59998138D01*
X108084474Y-60077275D01*
X108018448Y-60153363D01*
X108015448Y-60158549D01*
X108015445Y-60158553D01*
X107968312Y-60240026D01*
X107912527Y-60336454D01*
X107843139Y-60536271D01*
X107812787Y-60745604D01*
X101161516Y-60745604D01*
X104179879Y-57200400D01*
X107816500Y-57200400D01*
X107827474Y-57306166D01*
X107883450Y-57473946D01*
X107976522Y-57624348D01*
X108101697Y-57749305D01*
X108107929Y-57753147D01*
X108107931Y-57753148D01*
X108153690Y-57781355D01*
X108201183Y-57834127D01*
X108212605Y-57904199D01*
X108184331Y-57969323D01*
X108165403Y-57987702D01*
X108162144Y-57990262D01*
X108153494Y-57998499D01*
X108022788Y-58149123D01*
X108015853Y-58158847D01*
X107915990Y-58331467D01*
X107911016Y-58342331D01*
X107845593Y-58530727D01*
X107845352Y-58531716D01*
X107846820Y-58542008D01*
X107860385Y-58546000D01*
X110535402Y-58546000D01*
X110548933Y-58542027D01*
X110550288Y-58532601D01*
X110528806Y-58443463D01*
X110524917Y-58432168D01*
X110442371Y-58250618D01*
X110436424Y-58240276D01*
X110321032Y-58077603D01*
X110313239Y-58068575D01*
X110222243Y-57981465D01*
X110186867Y-57919910D01*
X110190386Y-57849000D01*
X110231683Y-57791250D01*
X110243053Y-57783315D01*
X110299348Y-57748478D01*
X110424305Y-57623303D01*
X110517115Y-57472738D01*
X110572797Y-57304861D01*
X110583500Y-57200400D01*
X110583500Y-56399600D01*
X110572526Y-56293834D01*
X110516550Y-56126054D01*
X110423478Y-55975652D01*
X110298303Y-55850695D01*
X110292072Y-55846854D01*
X110153968Y-55761725D01*
X110153966Y-55761724D01*
X110147738Y-55757885D01*
X109987254Y-55704655D01*
X109986389Y-55704368D01*
X109986387Y-55704368D01*
X109979861Y-55702203D01*
X109973025Y-55701503D01*
X109973022Y-55701502D01*
X109929969Y-55697091D01*
X109875400Y-55691500D01*
X108524600Y-55691500D01*
X108521354Y-55691837D01*
X108521350Y-55691837D01*
X108425692Y-55701762D01*
X108425688Y-55701763D01*
X108418834Y-55702474D01*
X108412298Y-55704655D01*
X108412296Y-55704655D01*
X108280194Y-55748728D01*
X108251054Y-55758450D01*
X108100652Y-55851522D01*
X107975695Y-55976697D01*
X107882885Y-56127262D01*
X107827203Y-56295139D01*
X107816500Y-56399600D01*
X107816500Y-57200400D01*
X104179879Y-57200400D01*
X104951723Y-56293834D01*
X106072169Y-54977819D01*
X106131559Y-54938917D01*
X106168107Y-54933500D01*
X118774998Y-54933500D01*
X118843119Y-54953502D01*
G37*
%TD.AperFunction*%
%TD*%
M02*
